<svg width="26" height="30" viewBox="0 0 26 30" fill="none" xmlns="http://www.w3.org/2000/svg">
<path d="M16.8109 1.8471L12.9833 0.360657L13.6522 2.7018L16.8109 1.8471Z" fill="#4FB7F0"/>
<path d="M23.9085 14.1473C23.9085 12.7126 23.6259 11.2919 23.0769 9.96637C22.5278 8.64085 21.7231 7.43645 20.7086 6.42194C19.694 5.40743 18.4896 4.60267 17.1641 4.05363C15.8386 3.50458 14.4179 3.22198 12.9832 3.22198C11.5485 3.22198 10.1278 3.50458 8.80224 4.05363C7.47672 4.60267 6.27232 5.40743 5.25781 6.42194C4.2433 7.43645 3.43855 8.64085 2.8895 9.96637C2.34045 11.2919 2.05786 12.7126 2.05786 14.1473L12.9832 14.1473H23.9085Z" fill="url(#paint0_linear_1_227)"/>
<path fill-rule="evenodd" clip-rule="evenodd" d="M22.1702 12.5473C22.0529 11.8737 21.8616 11.2134 21.5987 10.5787C21.13 9.44726 20.4431 8.41924 19.5772 7.55331C18.7112 6.68737 17.6832 6.00047 16.5518 5.53183C15.4204 5.06319 14.2078 4.82198 12.9832 4.82198C11.7586 4.82198 10.5459 5.06319 9.41454 5.53183C8.28314 6.00047 7.25512 6.68737 6.38918 7.55331C5.52325 8.41925 4.83635 9.44726 4.36771 10.5787C4.1048 11.2134 3.91347 11.8737 3.79615 12.5473L22.1702 12.5473ZM23.7907 12.5473C23.6598 11.663 23.4205 10.796 23.0769 9.96637C22.5278 8.64085 21.7231 7.43645 20.7086 6.42194C19.694 5.40743 18.4896 4.60267 17.1641 4.05363C15.8386 3.50458 14.4179 3.22198 12.9832 3.22198C11.5485 3.22198 10.1278 3.50458 8.80224 4.05363C7.47672 4.60267 6.27232 5.40743 5.25781 6.42194C4.2433 7.43645 3.43855 8.64085 2.8895 9.96637C2.54584 10.796 2.30658 11.663 2.17565 12.5473C2.09741 13.0758 2.05786 13.6106 2.05786 14.1473L23.9085 14.1473C23.9085 13.6106 23.869 13.0758 23.7907 12.5473Z" fill="#278BC2"/>
<path d="M0.199951 13.4777C0.199951 13.0673 0.532702 12.7345 0.94317 12.7345H25.0978C25.5083 12.7345 25.841 13.0673 25.841 13.4777C25.841 13.8882 25.5083 14.221 25.0978 14.221H0.94317C0.532702 14.221 0.199951 13.8882 0.199951 13.4777Z" fill="#278BC2"/>
<path d="M0.199951 28.9367C0.199951 28.5263 0.532702 28.1935 0.94317 28.1935H25.0978C25.5083 28.1935 25.841 28.5263 25.841 28.9367C25.841 29.3472 25.5083 29.68 25.0978 29.68H0.94317C0.532702 29.68 0.199951 29.3472 0.199951 28.9367Z" fill="#278BC2"/>
<path d="M0.199951 21.0588C0.199951 20.6483 0.532702 20.3156 0.94317 20.3156H25.0978C25.5083 20.3156 25.841 20.6483 25.841 21.0588C25.841 21.4693 25.5083 21.802 25.0978 21.802H0.94317C0.532702 21.802 0.199951 21.4693 0.199951 21.0588Z" fill="#278BC2"/>
<path d="M2.61519 15.3742C2.92304 15.3742 3.17261 15.6237 3.17261 15.9316L3.17261 18.6815C3.17261 18.9894 2.92304 19.2389 2.61519 19.2389C2.30734 19.2389 2.05778 18.9894 2.05778 18.6815L2.05778 15.9316C2.05778 15.6237 2.30734 15.3742 2.61519 15.3742Z" fill="#278BC2"/>
<path d="M23.4255 15.3742C23.7333 15.3742 23.9829 15.6237 23.9829 15.9316L23.9829 18.6815C23.9829 18.9894 23.7333 19.2389 23.4255 19.2389C23.1176 19.2389 22.8681 18.9894 22.8681 18.6815L22.8681 15.9316C22.8681 15.6237 23.1176 15.3742 23.4255 15.3742Z" fill="#278BC2"/>
<path d="M13.0205 15.3742C13.3283 15.3742 13.5779 15.6237 13.5779 15.9316L13.5779 18.6815C13.5779 18.9894 13.3283 19.2389 13.0205 19.2389C12.7126 19.2389 12.4631 18.9894 12.4631 18.6815L12.4631 15.9316C12.4631 15.6237 12.7126 15.3742 13.0205 15.3742Z" fill="#278BC2"/>
<path d="M12.9833 0.397613C13.3938 0.397614 13.7266 0.730364 13.7266 1.14083L13.7266 3.51913C13.7266 3.9296 13.3938 4.26235 12.9833 4.26235C12.5729 4.26235 12.2401 3.9296 12.2401 3.51913L12.2401 1.14083C12.2401 0.730365 12.5729 0.397613 12.9833 0.397613Z" fill="#278BC2"/>
<path d="M7.81783 15.3742C8.12568 15.3742 8.37524 15.6237 8.37524 15.9316L8.37524 18.6815C8.37524 18.9894 8.12568 19.2389 7.81783 19.2389C7.50998 19.2389 7.26042 18.9894 7.26042 18.6815L7.26042 15.9316C7.26042 15.6237 7.50998 15.3742 7.81783 15.3742Z" fill="#278BC2"/>
<path d="M18.2231 15.3742C18.531 15.3742 18.7805 15.6237 18.7805 15.9316L18.7805 18.6815C18.7805 18.9894 18.531 19.2389 18.2231 19.2389C17.9153 19.2389 17.6657 18.9894 17.6657 18.6815L17.6657 15.9316C17.6657 15.6237 17.9153 15.3742 18.2231 15.3742Z" fill="#278BC2"/>
<path d="M6.57742 26.7551C6.35614 26.7551 6.16072 26.7278 5.99117 26.6732C5.82162 26.6157 5.67793 26.5309 5.5601 26.4189C5.44515 26.3068 5.3575 26.1674 5.29715 26.0007C5.23968 25.8312 5.21094 25.6358 5.21094 25.4145V24.0308C5.21094 23.8986 5.24542 23.7994 5.31439 23.7333C5.38336 23.6644 5.48107 23.6299 5.60752 23.6299C5.73684 23.6299 5.83455 23.6644 5.90065 23.7333C5.96962 23.7994 6.0041 23.8986 6.0041 24.0308V25.4231C6.0041 25.6444 6.05296 25.8111 6.15066 25.9231C6.24837 26.0352 6.39062 26.0913 6.57742 26.0913C6.76134 26.0913 6.90216 26.0352 6.99987 25.9231C7.09757 25.8111 7.14643 25.6444 7.14643 25.4231V24.0308C7.14643 23.8986 7.17948 23.7994 7.24557 23.7333C7.31455 23.6644 7.41225 23.6299 7.5387 23.6299C7.66515 23.6299 7.76142 23.6644 7.82752 23.7333C7.89361 23.7994 7.92666 23.8986 7.92666 24.0308V25.4145C7.92666 25.7105 7.87493 25.9591 7.77148 26.1602C7.67089 26.3585 7.52002 26.508 7.31886 26.6085C7.11769 26.7063 6.87055 26.7551 6.57742 26.7551Z" fill="#278BC2"/>
<path d="M10.2331 26.7465C10.1066 26.7465 10.0089 26.712 9.93995 26.643C9.87098 26.5712 9.83649 26.472 9.83649 26.3456V24.0696C9.83649 23.9402 9.87098 23.8411 9.93995 23.7721C10.0118 23.7031 10.1109 23.6687 10.2374 23.6687H11.2978C11.6427 23.6687 11.9085 23.7578 12.0953 23.9359C12.285 24.1112 12.3798 24.3541 12.3798 24.6644C12.3798 24.9748 12.285 25.2191 12.0953 25.3972C11.9085 25.5725 11.6427 25.6602 11.2978 25.6602H10.6297V26.3456C10.6297 26.472 10.5966 26.5712 10.5305 26.643C10.4644 26.712 10.3653 26.7465 10.2331 26.7465ZM10.6297 25.0524H11.1599C11.3093 25.0524 11.4243 25.0208 11.5047 24.9576C11.5852 24.8915 11.6254 24.7937 11.6254 24.6644C11.6254 24.5322 11.5852 24.4345 11.5047 24.3713C11.4243 24.3081 11.3093 24.2765 11.1599 24.2765H10.6297V25.0524Z" fill="#278BC2"/>
<path d="M15.2584 26.7551C15.1434 26.7551 15.0227 26.7465 14.8963 26.7292C14.7727 26.7149 14.6549 26.6919 14.5428 26.6603C14.4307 26.6287 14.3301 26.5913 14.2411 26.5482C14.1635 26.5108 14.1089 26.462 14.0772 26.4016C14.0456 26.3384 14.0341 26.2723 14.0428 26.2033C14.0514 26.1344 14.0758 26.074 14.116 26.0223C14.1563 25.9677 14.2094 25.9318 14.2755 25.9145C14.3416 25.8944 14.4164 25.903 14.4997 25.9404C14.6089 25.9921 14.7325 26.0323 14.8704 26.0611C15.0084 26.0898 15.1377 26.1042 15.2584 26.1042C15.448 26.1042 15.5802 26.0798 15.655 26.0309C15.7325 25.9792 15.7713 25.916 15.7713 25.8412C15.7713 25.7751 15.744 25.722 15.6894 25.6817C15.6377 25.6415 15.5443 25.607 15.4092 25.5783L14.9049 25.4705C14.629 25.413 14.4235 25.3125 14.2885 25.1688C14.1534 25.0251 14.0859 24.8397 14.0859 24.6127C14.0859 24.4633 14.116 24.3282 14.1764 24.2075C14.2396 24.0839 14.3273 23.979 14.4393 23.8928C14.5543 23.8066 14.6894 23.7405 14.8445 23.6945C15.0026 23.6457 15.1779 23.6212 15.3705 23.6212C15.5199 23.6212 15.6708 23.6385 15.8231 23.673C15.9783 23.7046 16.1119 23.7534 16.224 23.8195C16.2901 23.854 16.3375 23.9014 16.3662 23.9618C16.395 24.0221 16.4064 24.0854 16.4007 24.1515C16.395 24.2147 16.372 24.2707 16.3317 24.3196C16.2944 24.3684 16.2426 24.4015 16.1765 24.4187C16.1133 24.4331 16.0372 24.4216 15.9481 24.3842C15.8647 24.3469 15.7699 24.3196 15.6636 24.3023C15.5601 24.2822 15.4595 24.2722 15.3618 24.2722C15.2555 24.2722 15.165 24.2851 15.0903 24.311C15.0155 24.3339 14.9581 24.3684 14.9178 24.4144C14.8805 24.4604 14.8618 24.5136 14.8618 24.5739C14.8618 24.6343 14.8862 24.686 14.9351 24.7291C14.9868 24.7693 15.0802 24.8038 15.2153 24.8325L15.7153 24.9403C15.9941 25.0007 16.2024 25.0998 16.3404 25.2377C16.4783 25.3757 16.5473 25.5553 16.5473 25.7766C16.5473 25.926 16.5171 26.0611 16.4567 26.1818C16.3964 26.3025 16.3102 26.4059 16.1981 26.4922C16.086 26.5755 15.951 26.6402 15.7929 26.6861C15.6348 26.7321 15.4567 26.7551 15.2584 26.7551Z" fill="#278BC2"/>
<path d="M19.8508 26.7551C19.5146 26.7551 19.2258 26.6904 18.9844 26.5611C18.743 26.4318 18.5576 26.2493 18.4283 26.0137C18.3019 25.778 18.2386 25.5021 18.2386 25.186C18.2386 24.9504 18.2746 24.7363 18.3464 24.5437C18.4211 24.3512 18.5274 24.1859 18.6654 24.048C18.8062 23.9101 18.9758 23.8052 19.174 23.7333C19.3752 23.6586 19.6008 23.6212 19.8508 23.6212C19.983 23.6212 20.1195 23.6371 20.2603 23.6687C20.404 23.6974 20.5305 23.7419 20.6397 23.8023C20.7201 23.8454 20.7762 23.9 20.8078 23.9661C20.8394 24.0322 20.8495 24.0997 20.838 24.1687C20.8293 24.2377 20.8049 24.2995 20.7647 24.3541C20.7245 24.4087 20.6727 24.446 20.6095 24.4661C20.5463 24.4834 20.4773 24.4733 20.4026 24.436C20.3164 24.3957 20.2302 24.3656 20.1439 24.3454C20.0606 24.3224 19.973 24.311 19.881 24.311C19.7028 24.311 19.5534 24.3454 19.4327 24.4144C19.3149 24.4805 19.2258 24.5782 19.1654 24.7075C19.1051 24.8369 19.0749 24.9964 19.0749 25.186C19.0749 25.3757 19.1051 25.5366 19.1654 25.6688C19.2258 25.7981 19.3149 25.8973 19.4327 25.9663C19.5534 26.0323 19.7028 26.0654 19.881 26.0654C19.9557 26.0654 20.0362 26.0568 20.1224 26.0395C20.2086 26.0194 20.2934 25.9892 20.3767 25.949C20.4629 25.9117 20.5391 25.9016 20.6052 25.9188C20.6742 25.9361 20.7288 25.9706 20.769 26.0223C20.8121 26.074 20.8394 26.1344 20.8509 26.2033C20.8624 26.2694 20.8523 26.3355 20.8207 26.4016C20.792 26.4677 20.7403 26.5209 20.6655 26.5611C20.565 26.6215 20.4399 26.6689 20.2905 26.7034C20.1439 26.7379 19.9974 26.7551 19.8508 26.7551Z" fill="#278BC2"/>
<path d="M3.916 25.2209C3.916 25.6314 3.58325 25.9641 3.17278 25.9641C2.76232 25.9641 2.42957 25.6314 2.42957 25.2209C2.42957 24.8104 2.76232 24.4777 3.17278 24.4777C3.58325 24.4777 3.916 24.8104 3.916 25.2209Z" fill="#278BC2"/>
<path d="M23.9087 25.2209C23.9087 25.6314 23.5759 25.9641 23.1655 25.9641C22.755 25.9641 22.4222 25.6314 22.4222 25.2209C22.4222 24.8104 22.755 24.4777 23.1655 24.4777C23.5759 24.4777 23.9087 24.8104 23.9087 25.2209Z" fill="#278BC2"/>
<defs>
<linearGradient id="paint0_linear_1_227" x1="12.9832" y1="3.22198" x2="12.9832" y2="25.0726" gradientUnits="userSpaceOnUse">
<stop stop-color="#ABE1FF"/>
<stop offset="0.5" stop-color="#ABE1FF" stop-opacity="0"/>
</linearGradient>
</defs>
</svg>
