<svg width="174" height="132" viewBox="0 0 174 132" fill="none" xmlns="http://www.w3.org/2000/svg">
<g clip-path="url(#clip0_1_37)">
<path d="M122.976 135.8C126.973 135.8 130.213 132.534 130.213 128.505C130.213 124.476 126.973 121.21 122.976 121.21C118.979 121.21 115.738 124.476 115.738 128.505C115.738 132.534 118.979 135.8 122.976 135.8Z" fill="#EA9626"/>
<path d="M152.695 137.731C159.428 135.988 166.585 134.177 172.057 129.6C176.947 125.51 180.399 119.098 178.712 112.592C177.028 106.099 171.368 101.582 165.431 99.2066C162.063 97.8593 158.515 97.0425 154.963 96.3692C151.101 95.6373 147.218 95.008 143.336 94.3964C127.618 91.9198 111.811 90.1507 95.9151 89.089C88.0716 88.5651 80.2211 88.2457 72.3634 88.0365C65.346 87.8497 57.9599 87.5421 51.5782 84.2632C46.6155 81.7134 42.1995 77.265 41.0209 71.6103C39.6604 65.0828 42.9336 58.6278 47.4325 54.1269C49.8039 51.7544 52.5422 49.7882 55.3573 47.9926C58.4113 46.0445 61.5628 44.2474 64.7755 42.5811C71.103 39.3009 77.6899 36.5589 84.4676 34.3836C87.8112 33.3102 91.1969 32.4048 94.6082 31.5814C97.4887 30.8861 100.378 30.19 103.175 29.1961C108.583 27.2749 113.792 23.8573 115.39 17.9677C116.904 12.3859 114.995 6.17965 111.38 1.83721C107.196 -3.18668 100.674 -5.58258 94.3521 -6.18774C87.2544 -6.86713 80.2303 -5.35612 73.4498 -3.35033C66.2179 -1.211 59.1248 1.29933 51.7613 2.96999C44.4595 4.62475 37.0416 5.7026 29.5749 6.19374C25.9197 6.43479 22.1524 6.72185 18.5041 6.27109C15.4465 5.89331 12.4318 4.85603 10.2615 2.56373C8.40063 0.598203 7.3527 -2.04075 7.86269 -4.75893C7.95533 -5.25263 8.69372 -5.01061 8.60165 -4.51992C7.98085 -1.21114 10.0947 1.94873 12.7908 3.63398C15.9067 5.58168 19.7895 5.74451 23.3507 5.68353C31.0731 5.53179 38.7701 4.73077 46.3619 3.2888C53.821 1.88962 61.0464 -0.252528 68.2706 -2.56125C75.1317 -4.75394 82.1415 -6.88108 89.3846 -7.11827C95.6693 -7.32407 102.222 -6.13006 107.544 -2.59789C112.221 0.506404 115.549 5.49866 116.443 11.1066C117.317 16.5867 115.57 21.9939 111.34 25.6182C106.96 29.3707 101.107 30.8107 95.654 32.1343C88.7374 33.813 81.9537 35.8291 75.3562 38.5381C68.6692 41.2755 62.2275 44.5892 56.1026 48.4423C50.19 52.1723 44.3106 56.93 42.2001 63.9327C41.2171 67.1946 41.229 70.6978 42.5175 73.8704C43.6632 76.6914 45.6422 79.1062 47.9855 81.0025C53.5765 85.527 60.8098 86.7073 67.7734 87.0826C75.5945 87.504 83.4309 87.5605 91.2532 88.0135C107.195 88.9367 123.074 90.5747 138.891 92.9276C142.855 93.5176 146.811 94.1521 150.761 94.8313C154.313 95.4423 157.878 96.0508 161.356 97.0189C167.539 98.7404 173.498 101.805 177.158 107.312C178.785 109.701 179.739 112.491 179.918 115.385C180.065 118.404 179.212 121.387 177.755 124.006C174.53 129.805 168.793 133.341 162.762 135.571C159.533 136.765 156.198 137.633 152.87 138.494C152.385 138.62 152.211 137.856 152.695 137.731L152.695 137.731Z" fill="#F0C589"/>
<path d="M74.9095 56.4292C76.995 56.4292 78.6856 54.7252 78.6856 52.6233C78.6856 50.5213 76.995 48.8173 74.9095 48.8173C72.824 48.8173 71.1334 50.5213 71.1334 52.6233C71.1334 54.7252 72.824 56.4292 74.9095 56.4292Z" fill="#FFDCAB"/>
<path d="M101.106 63.6452C103.191 63.6452 104.882 61.9412 104.882 59.8392C104.882 57.7372 103.191 56.0332 101.106 56.0332C99.0204 56.0332 97.3298 57.7372 97.3298 59.8392C97.3298 61.9412 99.0204 63.6452 101.106 63.6452Z" fill="#FFDCAB"/>
<path d="M123.29 49.2137C125.376 49.2137 127.066 47.5097 127.066 45.4077C127.066 43.3057 125.376 41.6017 123.29 41.6017C121.205 41.6017 119.514 43.3057 119.514 45.4077C119.514 47.5097 121.205 49.2137 123.29 49.2137Z" fill="#FFDCAB"/>
<path d="M137.136 65.3893C139.221 65.3893 140.912 63.6853 140.912 61.5833C140.912 59.4813 139.221 57.7773 137.136 57.7773C135.05 57.7773 133.36 59.4813 133.36 61.5833C133.36 63.6853 135.05 65.3893 137.136 65.3893Z" fill="#F2F2F2"/>
<path d="M118.413 84.1022C120.498 84.1022 122.189 82.3982 122.189 80.2962C122.189 78.1942 120.498 76.4902 118.413 76.4902C116.328 76.4902 114.637 78.1942 114.637 80.2962C114.637 82.3982 116.328 84.1022 118.413 84.1022Z" fill="#FFDCAB"/>
<path d="M94.6552 93.1412C96.7407 93.1412 98.4313 91.4372 98.4313 89.3352C98.4313 87.2332 96.7407 85.5292 94.6552 85.5292C92.5698 85.5292 90.8792 87.2332 90.8792 89.3352C90.8792 91.4372 92.5698 93.1412 94.6552 93.1412Z" fill="#FFDCAB"/>
<path d="M119.829 107.255C121.915 107.255 123.605 105.551 123.605 103.449C123.605 101.347 121.915 99.6426 119.829 99.6426C117.744 99.6426 116.053 101.347 116.053 103.449C116.053 105.551 117.744 107.255 119.829 107.255Z" fill="#F2F2F2"/>
<path d="M146.891 115.184C148.976 115.184 150.667 113.48 150.667 111.378C150.667 109.276 148.976 107.572 146.891 107.572C144.805 107.572 143.115 109.276 143.115 111.378C143.115 113.48 144.805 115.184 146.891 115.184Z" fill="#FFDCAB"/>
<path d="M122.201 52.3863C110.889 52.4668 101.628 61.7316 101.467 73.1315C101.466 73.2368 101.465 73.9768 101.465 74.9448C101.465 76.364 102.025 77.7251 103.02 78.7287C104.016 79.7323 105.366 80.2962 106.774 80.2963H106.774C107.472 80.2962 108.163 80.1574 108.808 79.8879C109.453 79.6184 110.039 79.2236 110.532 78.7258C111.025 78.2281 111.416 77.6372 111.683 76.9871C111.95 76.3369 112.087 75.6401 112.086 74.9366C112.086 74.2781 112.085 73.8224 112.085 73.7944C112.085 72.0326 112.54 70.301 113.405 68.77C114.269 67.239 115.515 65.9613 117.019 65.0626C118.522 64.1639 120.232 63.6752 121.979 63.6445C123.727 63.6138 125.453 64.0422 126.986 64.8876C128.52 65.733 129.809 66.9662 130.726 68.4659C131.644 69.9656 132.158 71.6802 132.218 73.441C132.279 75.2018 131.884 76.9482 131.071 78.5083C130.259 80.0684 129.058 81.3885 127.586 82.3388L127.588 82.341C127.588 82.341 120.031 87.2444 117.727 93.9708L117.729 93.9713C117.324 95.3492 117.119 96.779 117.12 98.2162C117.12 98.807 117.154 103.976 117.221 108.172C117.244 109.619 117.831 111 118.855 112.015C119.879 113.03 121.258 113.599 122.695 113.599H122.695C123.417 113.599 124.131 113.455 124.798 113.175C125.464 112.896 126.069 112.486 126.578 111.97C127.087 111.454 127.489 110.842 127.762 110.169C128.035 109.495 128.174 108.774 128.169 108.047C128.146 104.204 128.134 99.7303 128.134 99.4056C128.134 95.2753 132.087 91.1601 135.334 88.4765C139.073 85.3862 141.764 81.1748 142.845 76.4243C143.084 75.4462 143.216 74.4447 143.238 73.4376C143.238 70.6603 142.693 67.9103 141.633 65.3463C140.574 62.7823 139.022 60.4548 137.067 58.498C135.111 56.5412 132.791 54.9938 130.24 53.9449C127.688 52.8959 124.956 52.3662 122.201 52.3863Z" fill="#EA9626"/>
<path d="M108.273 77.7649C106.865 77.7648 105.515 77.2009 104.519 76.1973C103.523 75.1937 102.964 73.8326 102.964 72.4134C102.964 71.4454 102.965 70.7054 102.966 70.6001C103.011 67.2847 103.839 64.0278 105.383 61.0996C102.847 64.5984 101.453 68.805 101.393 73.1374C101.391 73.2427 101.391 73.9828 101.391 74.9507C101.391 76.37 101.95 77.731 102.946 78.7346C103.941 79.7382 105.292 80.3021 106.7 80.3022C107.857 80.3018 108.982 79.9207 109.905 79.2169C110.827 78.513 111.497 77.5249 111.811 76.4026C110.839 77.2813 109.579 77.7665 108.273 77.7649Z" fill="#B38140"/>
<path d="M122.56 63.6623C124.188 63.7406 125.773 64.216 127.178 65.0476C128.584 65.8793 129.768 67.0422 130.629 68.4367C131.49 69.8312 132.003 71.4155 132.123 73.0537C132.243 74.6918 131.966 76.3348 131.317 77.8417C132.256 76.7307 132.946 75.4289 133.34 74.0249C133.734 72.6209 133.823 71.1478 133.601 69.7059C133.379 68.2641 132.851 66.8875 132.054 65.6699C131.256 64.4523 130.207 63.4223 128.979 62.6503C127.75 61.8783 126.371 61.3823 124.935 61.1962C123.5 61.0101 122.041 61.1382 120.659 61.5718C119.276 62.0054 118.003 62.7343 116.926 63.7089C115.848 64.6834 114.992 65.8806 114.416 67.2189C115.412 66.0371 116.665 65.1018 118.077 64.4851C119.489 63.8684 121.023 63.5869 122.56 63.6623Z" fill="#B38140"/>
<path d="M124.194 111.067C122.757 111.067 121.378 110.498 120.354 109.483C119.33 108.468 118.743 107.087 118.72 105.64C118.654 101.444 118.619 96.2751 118.619 95.6844C118.618 94.2472 118.823 92.8174 119.228 91.4394L119.227 91.4389C119.466 90.7473 119.755 90.0741 120.091 89.4248C119.059 90.8115 118.237 92.3455 117.653 93.9763L117.655 93.9768C117.25 95.3547 117.045 96.7845 117.046 98.2217C117.046 98.8125 117.08 103.982 117.147 108.177C117.17 109.625 117.757 111.005 118.781 112.02C119.805 113.036 121.184 113.605 122.62 113.604C123.805 113.604 124.957 113.217 125.905 112.501C126.852 111.784 127.544 110.778 127.876 109.632C126.869 110.557 125.556 111.069 124.194 111.067Z" fill="#B38140"/>
<path d="M75.0115 133.989L76.9402 133.989L77.858 126.49L75.011 126.49L75.0115 133.989Z" fill="#FFB8B8"/>
<path d="M68.0886 133.989L70.0174 133.989L70.9351 126.49L68.0881 126.49L68.0886 133.989Z" fill="#FFB8B8"/>
<path d="M69.7744 131.684L67.8903 131.584C67.7932 131.579 67.698 131.554 67.6103 131.512C67.5226 131.469 67.4442 131.409 67.3795 131.336C67.3149 131.263 67.2653 131.177 67.2336 131.085C67.202 130.992 67.1889 130.894 67.1951 130.796L69.447 105.666L79.8172 108.487L80.8163 108.212L77.6919 130.459C77.6653 130.626 77.5828 130.779 77.4582 130.893C77.3335 131.007 77.1741 131.074 77.0062 131.084L74.9752 131.179C74.8736 131.185 74.772 131.17 74.6767 131.134C74.5815 131.098 74.4946 131.042 74.4217 130.971C74.3488 130.899 74.2914 130.813 74.2531 130.718C74.2148 130.623 74.1965 130.521 74.1993 130.419L74.5673 117.067C74.569 117.005 74.5477 116.945 74.5076 116.898C74.4675 116.852 74.4115 116.822 74.3507 116.815C74.2898 116.807 74.2285 116.823 74.1788 116.86C74.1291 116.896 74.0946 116.949 74.0822 117.01L70.5332 131.094C70.4997 131.261 70.4097 131.411 70.2786 131.519C70.1475 131.627 69.9834 131.685 69.8143 131.685C69.8011 131.685 69.7878 131.684 69.7744 131.684Z" fill="#2F2E41"/>
<path d="M75.3577 85.1044C77.492 85.1044 79.2221 83.3605 79.2221 81.2094C79.2221 79.0583 77.492 77.3145 75.3577 77.3145C73.2235 77.3145 71.4934 79.0583 71.4934 81.2094C71.4934 83.3605 73.2235 85.1044 75.3577 85.1044Z" fill="#FFB8B8"/>
<path d="M68.924 92.6523L69.3489 101.893L69.5025 105.254C69.5086 105.401 69.5579 105.542 69.6441 105.66C69.7303 105.778 69.8494 105.867 69.9862 105.916L79.9512 109.555C80.0317 109.585 80.117 109.6 80.2029 109.599C80.3011 109.6 80.3983 109.58 80.4888 109.542C80.5794 109.504 80.6613 109.448 80.7298 109.377C80.7983 109.306 80.8519 109.222 80.8875 109.13C80.923 109.037 80.9397 108.939 80.9367 108.84L80.5281 92.2257C80.5013 90.8626 80.0035 89.5516 79.1205 88.5188C78.2375 87.486 77.0246 86.7961 75.691 86.5679C75.5947 86.5531 75.4966 86.5383 75.3985 86.5251C74.5716 86.4216 73.7322 86.5021 72.9394 86.7607C72.1466 87.0194 71.4197 87.45 70.8098 88.0223C70.1783 88.6078 69.682 89.3259 69.3562 90.126C69.0303 90.926 68.8828 91.7885 68.924 92.6523L68.924 92.6523Z" fill="#CCCCCC"/>
<path d="M84.7115 107.711C84.4758 107.637 84.2605 107.509 84.0827 107.336C83.9049 107.164 83.7696 106.952 83.6875 106.717C83.6055 106.483 83.5789 106.232 83.6101 105.985C83.6412 105.738 83.7291 105.502 83.8668 105.296L80.4875 100.767L83.4037 100.585L86.1656 104.914C86.4613 105.144 86.667 105.472 86.7468 105.84C86.8265 106.208 86.7751 106.593 86.6016 106.927C86.4282 107.26 86.1437 107.522 85.7981 107.665C85.4524 107.808 85.0678 107.825 84.7115 107.711H84.7115Z" fill="#FFB8B8"/>
<path d="M82.3355 104.476C82.246 104.44 82.1645 104.386 82.0959 104.317C82.0273 104.249 81.9728 104.167 81.9357 104.077L76.8446 91.8512C76.7447 91.6118 76.6925 91.355 76.6912 91.0953C76.6898 90.8356 76.7393 90.5782 76.8366 90.3378C76.934 90.0974 77.0775 89.8787 77.2588 89.6941C77.44 89.5096 77.6556 89.3629 77.8932 89.2624C78.1308 89.1619 78.3857 89.1096 78.6433 89.1084C78.9009 89.1073 79.1563 89.1573 79.3947 89.2556C79.6332 89.354 79.8501 89.4987 80.033 89.6816C80.2159 89.8644 80.3613 90.0819 80.4608 90.3214L85.5519 102.547C85.6272 102.729 85.628 102.933 85.5543 103.115C85.4805 103.296 85.3382 103.441 85.1585 103.518L82.8983 104.474C82.8094 104.512 82.7138 104.531 82.6172 104.532C82.5206 104.532 82.4248 104.514 82.3355 104.476L82.3355 104.476Z" fill="#CCCCCC"/>
<path d="M74.1154 104.045L79.0052 94.6081C79.0995 94.4266 79.2614 94.2902 79.4554 94.2289C79.6493 94.1675 79.8594 94.1862 80.0397 94.2808L87.1374 98.0171C87.3175 98.1121 87.4528 98.2753 87.5136 98.4707C87.5745 98.6662 87.5559 98.878 87.462 99.0597L82.5722 108.497C82.4779 108.678 82.316 108.815 82.122 108.876C81.9281 108.937 81.718 108.919 81.5377 108.824L74.44 105.088C74.26 104.993 74.1246 104.83 74.0638 104.634C74.0029 104.439 74.0215 104.227 74.1154 104.045Z" fill="#3F3D56"/>
<path d="M77.3948 99.7345C77.3079 99.5017 77.1682 99.2926 76.9868 99.1239C76.8055 98.9552 76.5875 98.8316 76.3504 98.7629C76.1132 98.6942 75.8634 98.6823 75.6208 98.7282C75.3783 98.7741 75.1497 98.8765 74.9534 99.0272L70.2682 95.8945L70.2603 98.8394L74.7106 101.363C74.9563 101.647 75.2933 101.834 75.6625 101.893C76.0317 101.951 76.4096 101.877 76.7298 101.683C77.0501 101.488 77.2922 101.187 77.4138 100.83C77.5354 100.474 77.5287 100.086 77.3948 99.7345Z" fill="#FFB8B8"/>
<path d="M71.471 100.396L67.642 97.3391C67.2277 97.1989 66.8535 96.9595 66.5512 96.6414C66.249 96.3233 66.0279 95.9361 65.9068 95.5129C65.7858 95.0897 65.7684 94.6432 65.8563 94.2118C65.9441 93.7804 66.1345 93.3769 66.4111 93.0359L69.8877 88.4434C70.1293 88.1458 70.4691 87.9459 70.845 87.88C71.2208 87.8141 71.6076 87.8868 71.9347 88.0847C72.2618 88.2826 72.5073 88.5926 72.6263 88.9579C72.7453 89.3232 72.7299 89.7195 72.5829 90.0743L69.832 94.6098L73.8746 96.5424C73.9686 96.5874 74.0521 96.6519 74.1195 96.7318C74.1869 96.8116 74.2368 96.905 74.2658 97.0057C74.2947 97.1065 74.3022 97.2122 74.2876 97.316C74.273 97.4199 74.2367 97.5194 74.1811 97.6081L72.5493 100.211C72.4941 100.299 72.4212 100.374 72.3354 100.432C72.2496 100.489 72.1527 100.528 72.051 100.546C72.047 100.547 72.0429 100.547 72.0389 100.548C71.939 100.563 71.837 100.557 71.7394 100.531C71.6417 100.505 71.5504 100.459 71.471 100.396Z" fill="#CCCCCC"/>
<path d="M72.4377 83.8171C72.4211 83.7682 72.4159 83.7161 72.4223 83.6649C72.4288 83.6136 72.4468 83.5645 72.475 83.5214C72.5032 83.4782 72.5408 83.4422 72.585 83.4159C72.6291 83.3897 72.6787 83.374 72.7298 83.37C72.8344 83.3758 72.9369 83.4028 73.0309 83.4496C73.1249 83.4963 73.2085 83.5618 73.2767 83.642C73.4165 83.8045 73.5794 83.9454 73.7599 84.0602C73.9468 84.1552 74.2004 84.1416 74.3069 83.9606C74.407 83.7905 74.3384 83.5629 74.2779 83.3653C74.1237 82.8628 74.0374 82.3417 74.0214 81.816C74.004 81.2292 74.0861 80.6168 74.4084 80.1591C74.8244 79.5684 75.5682 79.3442 76.2721 79.3604C76.9761 79.3767 77.6686 79.5957 78.3658 79.7342C78.6065 79.782 78.8895 79.8064 79.0505 79.6184C79.2217 79.4184 79.1588 79.0948 79.086 78.8248C78.897 78.1243 78.6966 77.4 78.2576 76.8343C77.7829 76.2464 77.1048 75.8616 76.36 75.7575C75.6448 75.6682 74.9189 75.7512 74.2418 75.9998C73.1387 76.3503 72.1681 77.0318 71.4597 77.9534C70.7294 78.9334 70.4139 80.1649 70.5821 81.3788C70.7463 82.436 71.3021 83.3911 72.1374 84.0516L72.4377 83.8171Z" fill="#2F2E41"/>
<path d="M121.381 134.021C120.353 133.569 119.443 132.883 118.723 132.017C118.003 131.15 117.493 130.127 117.232 129.028C116.972 127.928 116.968 126.783 117.222 125.682C117.476 124.581 117.981 123.555 118.695 122.684C117.867 123.294 117.176 124.074 116.669 124.974C116.163 125.874 115.852 126.871 115.757 127.901C115.662 128.931 115.786 129.97 116.12 130.948C116.454 131.926 116.99 132.822 117.694 133.575C118.397 134.328 119.251 134.922 120.2 135.317C121.148 135.712 122.169 135.899 123.195 135.866C124.221 135.832 125.228 135.58 126.149 135.124C127.071 134.669 127.886 134.021 128.54 133.224C127.52 133.975 126.322 134.444 125.066 134.584C123.81 134.724 122.54 134.53 121.381 134.021Z" fill="#B38140"/>
</g>
<defs>
<clipPath id="clip0_1_37">
<path d="M0 0H159C167.284 0 174 6.71573 174 15V117C174 125.284 167.284 132 159 132H0V0Z" fill="white"/>
</clipPath>
</defs>
</svg>
