<svg width="38" height="38" viewBox="0 0 38 38" fill="none" xmlns="http://www.w3.org/2000/svg">
<path d="M16.6615 7.65503L16.6615 28.541L5.43527 28.541L5.43527 7.65503L16.6615 7.65503Z" fill="url(#paint0_linear_1_517)"/>
<path d="M24.7548 4.69623L24.7548 32.2832L19.2722 32.2832L19.2722 4.69623L24.7548 4.69623Z" fill="url(#paint1_linear_1_517)"/>
<path d="M7.97376 25.0903C7.97351 25.7432 8.23273 26.3697 8.69426 26.8317C9.1558 27.2935 9.78223 27.5532 10.4351 27.5535C11.0883 27.5537 11.7147 27.2945 12.1765 26.8327C12.6383 26.3709 12.898 25.7447 12.898 25.0918C12.898 24.4387 12.6388 23.8122 12.177 23.3505C11.7152 22.8887 11.089 22.6292 10.4359 22.6292C9.78366 22.6309 9.15847 22.8909 8.69718 23.3519C8.23588 23.8129 7.97593 24.4379 7.97376 25.0903ZM11.7213 25.0903H11.7215C11.7215 25.4313 11.586 25.7581 11.3448 25.9993C11.1038 26.2403 10.7768 26.3758 10.4358 26.3758C10.0949 26.3758 9.76805 26.2403 9.52682 25.9993C9.28584 25.7581 9.15039 25.4313 9.15039 25.0903C9.15039 24.7494 9.28584 24.4224 9.52682 24.1813C9.76805 23.9401 10.0949 23.8047 10.4358 23.8047C10.7775 23.8044 11.105 23.9396 11.347 24.1806C11.5892 24.4216 11.7256 24.7487 11.7268 25.0903L11.7213 25.0903Z" fill="#278BC2"/>
<path d="M15.1041 6.9743H5V29.7634H16.7002V21.2007H14.8385V15.5358H16.7002V6.9743H15.1041ZM12.1627 18.5002V17.095C12.1617 16.6918 12.3183 16.3044 12.5994 16.0153C12.8803 15.7261 13.263 15.5586 13.666 15.5479V21.1921C13.2638 21.18 12.8817 21.0117 12.6012 20.723C12.3205 20.4344 12.1635 20.0477 12.1627 19.6453L12.1627 18.5002ZM15.5289 14.3605H13.7204C12.9957 14.3629 12.3015 14.6518 11.7892 15.1644C11.2768 15.6768 10.9882 16.3713 10.9863 17.0959V19.6431C10.9887 20.3665 11.2781 21.0593 11.7907 21.5697C12.303 22.0804 12.9971 22.3669 13.7205 22.3666H15.529V28.5872L6.17625 28.587V8.15093H15.5234L15.5289 14.3605Z" fill="#278BC2"/>
<path d="M10.4359 14.1084C11.091 14.1099 11.7198 13.8509 12.1838 13.3882C12.6475 12.9256 12.9085 12.2975 12.9089 11.6424C12.9091 10.9874 12.6492 10.359 12.1857 9.89571C11.7225 9.43271 11.0939 9.17278 10.4388 9.17346C9.78373 9.17419 9.15586 9.43536 8.69333 9.89932C8.23106 10.3635 7.97208 10.9924 7.97376 11.6475C7.97522 12.2999 8.23517 12.9251 8.69669 13.3864C9.15799 13.8477 9.78342 14.1072 10.4359 14.1084ZM10.4359 10.351V10.3512C10.7783 10.3497 11.1073 10.4842 11.3504 10.7254C11.5934 10.9664 11.7307 11.2942 11.7322 11.6366C11.7337 11.979 11.5992 12.308 11.358 12.551C11.117 12.7941 10.7892 12.9315 10.4468 12.933C10.1044 12.9345 9.7754 12.8 9.53243 12.5588C9.28926 12.3178 9.15187 11.99 9.15041 11.6476C9.14871 11.3052 9.28318 10.9759 9.52441 10.7328C9.76539 10.4896 10.0934 10.3522 10.4358 10.3512L10.4359 10.351Z" fill="#278BC2"/>
<path d="M25.2848 26.6478V4H18.9338V33H32.29L32.2897 26.6478H25.2848ZM24.119 5.17531V26.9834L20.0991 31.0054V26.7392H21.5633V25.565H20.0991V23.7402H22.8085V22.5657H20.0991V20.6332H21.5633V19.4577H20.0991V17.634H22.8085V16.4597H20.0991V14.5282H21.5633V13.3571H20.0991V11.5292H22.8085V10.3547H20.0991V8.42224H21.5633V7.24774H20.0991V5.17787L24.119 5.17531ZM31.113 31.8222H29.3186V30.6238H28.1444V31.8222H26.3249V29.3807H25.1451V31.8231H20.939L24.9491 27.813L31.1184 27.8132L31.113 31.8222Z" fill="#278BC2"/>
<defs>
<linearGradient id="paint0_linear_1_517" x1="17.7307" y1="17.8475" x2="5.30162" y2="17.8475" gradientUnits="userSpaceOnUse">
<stop stop-color="#ABE1FF" stop-opacity="0"/>
<stop offset="1" stop-color="#ABE1FF"/>
</linearGradient>
<linearGradient id="paint1_linear_1_517" x1="25.2769" y1="18.1588" x2="19.2069" y2="18.1588" gradientUnits="userSpaceOnUse">
<stop stop-color="#ABE1FF" stop-opacity="0"/>
<stop offset="1" stop-color="#ABE1FF"/>
</linearGradient>
</defs>
</svg>
