<svg width="38" height="38" viewBox="0 0 38 38" fill="none" xmlns="http://www.w3.org/2000/svg">
<path d="M25.1749 11.0947C24.948 11.0977 24.753 11.2947 24.714 11.477L24.4591 12.8842C23.9128 13.0897 23.4087 13.3735 22.9588 13.7275L21.6301 13.2127C21.4255 13.1333 21.1697 13.2207 21.0565 13.4088L19.7474 15.5514C19.6365 15.7379 19.6778 16.0009 19.8405 16.1446L20.8946 17.0811C20.8272 17.4288 20.7819 17.787 20.7819 18.1547C20.7819 18.5216 20.8276 18.8766 20.8946 19.2235L19.8405 20.1599C19.6754 20.304 19.634 20.5705 19.7474 20.7581L21.0565 22.9006C21.1712 23.087 21.4265 23.1721 21.6301 23.0918L22.9588 22.582C23.4081 22.9352 23.9136 23.215 24.4591 23.4203L24.714 24.8275C24.7526 25.0418 24.9572 25.2137 25.1749 25.2148H27.6851C27.9044 25.2163 28.112 25.0434 28.1509 24.8275L28.4059 23.4203C28.9513 23.215 29.4568 22.9352 29.9061 22.582L31.2348 23.0918C31.4372 23.1695 31.6892 23.0849 31.8035 22.9006L33.1126 20.7581C33.2272 20.5716 33.1879 20.3054 33.0243 20.1599L31.9702 19.2185C32.0359 18.8716 32.0781 18.5178 32.0781 18.1546C32.0781 17.7904 32.0363 17.4336 31.9702 17.0858L33.0243 16.1445C33.1855 15.9996 33.2245 15.7368 33.1126 15.5512L31.8035 13.4087C31.6907 13.2227 31.4383 13.1357 31.2348 13.2126L29.9061 13.7273C29.4563 13.3734 28.9522 13.0897 28.4059 12.884L28.1509 11.4769C28.1099 11.2627 27.9031 11.0929 27.6851 11.0945H25.1749V11.0947ZM25.572 12.0361H27.2929L27.5234 13.2961C27.5548 13.4634 27.6842 13.6086 27.847 13.6589C28.4745 13.8562 29.0434 14.1855 29.5285 14.61C29.6575 14.7221 29.8499 14.7555 30.009 14.6934L31.2052 14.2325L32.1023 15.7083L31.1463 16.5613C31.0192 16.6752 30.9623 16.8616 31.0041 17.0271C31.0925 17.3861 31.1366 17.7637 31.1366 18.1547C31.1366 18.5457 31.0925 18.9233 31.0041 19.2823C30.9642 19.4464 31.021 19.6301 31.1463 19.7432L32.1073 20.6011L31.2052 22.0719L30.009 21.6111C29.8498 21.5488 29.6573 21.5823 29.5285 21.6945C29.0434 22.119 28.4745 22.4484 27.847 22.6456C27.6843 22.6959 27.5548 22.8411 27.5234 23.0084L27.2929 24.2732H25.572L25.3415 23.0084C25.3101 22.841 25.1807 22.6958 25.0179 22.6456C24.3904 22.4484 23.8215 22.119 23.3364 21.6945C23.2074 21.5823 23.0151 21.549 22.856 21.6111L21.6548 22.0719L20.7577 20.6011L21.7186 19.7481C21.8457 19.6361 21.9044 19.4521 21.8657 19.2873C21.776 18.9239 21.7235 18.5451 21.7235 18.1547C21.7235 17.7643 21.776 17.3855 21.8657 17.0222C21.9063 16.8559 21.8474 16.6692 21.7186 16.5564L20.7577 15.7034L21.6597 14.2325L22.856 14.6934C23.0151 14.7556 23.2076 14.7221 23.3364 14.61C23.8215 14.1855 24.3904 13.8561 25.0179 13.6589C25.1806 13.6085 25.3101 13.4634 25.3415 13.2961L25.572 12.0361ZM26.43 14.86C24.616 14.86 23.1354 16.3407 23.1354 18.1546C23.1354 19.9686 24.616 21.4493 26.43 21.4493C28.2439 21.4493 29.7246 19.9686 29.7246 18.1546C29.7246 16.3406 28.2439 14.86 26.43 14.86ZM26.43 15.8014C27.7352 15.8014 28.7833 16.8494 28.7833 18.1547C28.7833 19.4599 27.7352 20.508 26.43 20.508C25.1247 20.508 24.0767 19.4599 24.0767 18.1547C24.0767 16.8494 25.1247 15.8014 26.43 15.8014Z" fill="#278BC2"/>
<path d="M19.9495 9.2695H14.2875L13.9455 9.6875V16.2995L5.16748 29.3715L6.61148 30.4735H27.9675L28.5375 29.8275V28.6495L20.2535 16.5275L19.9495 9.2695Z" fill="white"/>
<path d="M19.9495 9.2695H14.2875L13.9455 9.6875V16.2995L5.16748 29.3715L6.61148 30.4735H27.9675L28.5375 29.8275V28.6495L20.2535 16.5275L19.9495 9.2695Z" fill="url(#paint0_linear_1_558)"/>
<path d="M11.51 7.94701H13.8553C13.6564 7.7481 13.4604 7.55217 13.2615 7.35323V10.4882V15.4817V16.6276C13.2882 16.5266 13.3149 16.4287 13.3417 16.3277C12.9498 16.8918 12.5609 17.4558 12.169 18.0229C11.406 19.1273 10.6401 20.2317 9.8771 21.336C9.35163 22.096 8.82618 22.853 8.3007 23.613C7.90882 24.18 7.51692 24.7471 7.12509 25.3111C6.50167 26.2136 5.87527 27.1161 5.2518 28.0186C5.23992 28.0365 5.22805 28.0543 5.21617 28.0721C5.38836 27.9741 5.55758 27.8761 5.72976 27.7782C5.45367 27.799 5.31414 27.9326 5.15976 28.1374C5.10632 28.2057 5.05585 28.274 5.01429 28.3511C4.80945 28.7401 4.7471 29.1616 4.81242 29.595C4.90445 30.2096 5.33492 30.7707 5.90193 31.02C6.21959 31.1596 6.53132 31.1982 6.86675 31.1982H9.04583H12.8577H17.4118H21.9035H25.4749H27.2799C28.0043 31.1982 28.7108 30.8479 29.0552 30.1858C29.3699 29.5832 29.3699 28.8232 28.9929 28.2473C28.883 28.081 28.7643 27.9177 28.6515 27.7544C27.2295 25.6971 25.8074 23.6427 24.3824 21.5854C23.2335 19.9229 22.0846 18.2634 20.9357 16.6009C20.8733 16.5118 20.811 16.4228 20.7516 16.3337C20.7783 16.4346 20.8051 16.5326 20.8318 16.6335V13.4985V8.50513V7.35921C20.6329 7.55812 20.4369 7.75406 20.238 7.95299H22.5833C22.895 7.95299 23.1919 7.67987 23.1771 7.35921C23.1623 7.03856 22.9158 6.76544 22.5833 6.76544H20.238C19.9174 6.76544 19.6442 7.03856 19.6442 7.35921V10.9811V16.0903C19.6442 16.2566 19.6413 16.4228 19.6442 16.5891C19.6472 16.7998 19.7244 16.9334 19.8342 17.0908C20.4012 17.9102 20.9683 18.7325 21.5383 19.5519C23.4205 22.2742 25.3056 24.9967 27.1878 27.7219C27.4283 28.0692 27.6688 28.4166 27.9092 28.7639C27.927 28.7906 27.9448 28.8144 27.9627 28.8411C27.9656 28.8441 27.9686 28.847 27.9686 28.85C27.9953 28.8916 28.0161 28.9361 28.0428 28.9776C28.0725 29.04 28.0725 29.037 28.0428 28.9717C28.0547 29.0044 28.0636 29.034 28.0725 29.0667C28.0873 29.1142 28.0963 29.1647 28.1052 29.2151C28.0844 29.0726 28.0992 29.2419 28.0992 29.2656C28.0992 29.2775 28.1022 29.3873 28.0933 29.3903C28.0963 29.3636 28.1022 29.3398 28.1052 29.3131C28.1022 29.3398 28.0963 29.3666 28.0903 29.3933C28.0814 29.4319 28.0725 29.4705 28.0606 29.5091C28.0577 29.5209 28.0517 29.5328 28.0488 29.5476C28.025 29.607 28.0309 29.5981 28.0666 29.515C28.0755 29.5298 27.9448 29.7525 27.93 29.7495C27.9448 29.7287 27.9597 29.7109 27.9745 29.6901C27.9597 29.7109 27.9419 29.7287 27.9241 29.7495C27.8973 29.7792 27.8706 29.8059 27.8409 29.8326C27.832 29.8416 27.8231 29.8505 27.8113 29.8594C27.7638 29.9009 27.7727 29.892 27.8409 29.8386C27.8439 29.8475 27.7519 29.898 27.743 29.9039C27.7103 29.9247 27.6747 29.9395 27.6391 29.9603C27.5233 30.0256 27.7638 29.9247 27.6361 29.9603C27.5975 29.9722 27.5619 29.9841 27.5233 29.993C27.4966 29.9989 27.4699 30.0048 27.4461 30.0108C27.3808 30.0226 27.3927 30.0197 27.4847 30.0048C27.4788 30.0197 27.3719 30.0108 27.3333 30.0108H27.0809H23.9192H18.5636H12.748H8.20281H6.94702H6.66796H6.6264C6.61155 30.0108 6.72734 29.892 6.58484 30.0078C6.61156 30.0108 6.6353 30.0167 6.66202 30.0197C6.63531 30.0167 6.60859 30.0108 6.58187 30.0048C6.54327 29.9959 6.50468 29.987 6.46609 29.9751C6.45421 29.9722 6.44234 29.9662 6.42749 29.9633C6.36811 29.9395 6.37702 29.9455 6.46015 29.9811C6.43343 29.9959 6.28203 29.8831 6.25531 29.8683C6.1425 29.8 6.34734 29.9573 6.25234 29.8653C6.21374 29.8297 6.17515 29.797 6.1425 29.7584C6.13359 29.7495 6.12468 29.7406 6.11578 29.7287C6.07422 29.6812 6.08312 29.6901 6.13656 29.7584C6.12765 29.7584 6.07718 29.6694 6.07125 29.6605C6.05047 29.6278 6.03562 29.5922 6.01484 29.5565C5.94953 29.4408 6.05046 29.6812 6.01484 29.5536C6.00593 29.5209 5.93468 29.3458 5.95843 29.322C5.9614 29.3487 5.96734 29.3725 5.97031 29.3992C5.96734 29.3725 5.96734 29.3458 5.96437 29.3161C5.96437 29.2686 5.96734 29.2211 5.96734 29.1706C5.97327 29.0192 5.92874 29.2716 5.97624 29.1291C5.99109 29.0816 6.00296 29.0341 6.01781 28.9866C6.05937 28.8441 5.95546 29.0726 6.03562 28.9509C6.05343 28.9212 6.06827 28.8916 6.08609 28.8648C6.13062 28.7995 6.18109 28.7372 6.22859 28.6748C6.0564 28.7728 5.88718 28.8708 5.71499 28.9687C5.95546 28.9509 6.10984 28.85 6.2464 28.657C6.26718 28.6273 6.285 28.6006 6.30578 28.5709C6.38594 28.4552 6.46609 28.3394 6.54625 28.2206C6.82234 27.8228 7.09844 27.422 7.37454 27.0242C7.94156 26.2048 8.51156 25.3825 9.07862 24.5631C9.26862 24.287 9.46159 24.0109 9.65161 23.7348C10.1919 22.957 10.7293 22.1762 11.2696 21.3984C11.9049 20.4811 12.5402 19.5637 13.1726 18.6464C13.5526 18.0972 13.9326 17.548 14.3126 16.9987C14.4135 16.8533 14.4402 16.687 14.4402 16.5148V15.7459V12.8187V9.47891V7.45421V7.35624C14.4402 7.03562 14.1671 6.76247 13.8465 6.76247H11.5012C11.1894 6.76247 10.8926 7.03559 10.9074 7.35624C10.9311 7.6739 11.1775 7.94704 11.5101 7.94704L11.51 7.94701Z" fill="#278BC2"/>
<path d="M13.8547 14.1823H16.6364H17.0312C17.343 14.1823 17.6398 13.9092 17.625 13.5885C17.6102 13.2678 17.3638 12.9947 17.0312 12.9947H14.2495H13.8547C13.543 12.9947 13.2461 13.2678 13.2609 13.5885C13.2757 13.9092 13.5222 14.1823 13.8547 14.1823Z" fill="#278BC2"/>
<path d="M13.8548 10.4412H16.6365H17.0314C17.3431 10.4412 17.64 10.1681 17.6251 9.84745C17.6103 9.5268 17.3639 9.25368 17.0314 9.25368H14.2496H13.8548C13.5431 9.25368 13.2462 9.5268 13.261 9.84745C13.2759 10.1681 13.5223 10.4412 13.8548 10.4412Z" fill="#278BC2"/>
<path d="M8.74861 24.6014H10.4022H14.3744H19.16H23.2984C23.9693 24.6014 24.6432 24.6162 25.3142 24.6014H25.3409C25.6527 24.6014 25.9495 24.3283 25.9347 24.0076C25.9199 23.687 25.6735 23.4138 25.3409 23.4138H23.6873H19.7151H14.9295H10.7911C10.1202 23.4138 9.4463 23.399 8.77533 23.4138H8.74861C8.43689 23.4138 8.14001 23.6869 8.15483 24.0076C8.16965 24.3283 8.41608 24.6014 8.74861 24.6014Z" fill="#278BC2"/>
<defs>
<linearGradient id="paint0_linear_1_558" x1="16.8525" y1="9.2695" x2="16.8525" y2="30.4735" gradientUnits="userSpaceOnUse">
<stop stop-color="#ABE1FF" stop-opacity="0"/>
<stop offset="1" stop-color="#ABE1FF"/>
</linearGradient>
</defs>
</svg>
