<svg width="40" height="40" viewBox="0 0 40 40" fill="none" xmlns="http://www.w3.org/2000/svg">
<g filter="url(#filter0_b_1_85)">
<rect width="40" height="40" rx="20" fill="white"/>
</g>
<g clip-path="url(#clip0_1_85)">
<path d="M24.5 17C24.5 15.8065 24.0259 14.6619 23.182 13.818C22.3381 12.9741 21.1935 12.5 20 12.5C18.8065 12.5 17.6619 12.9741 16.818 13.818C15.9741 14.6619 15.5 15.8065 15.5 17C15.5 22.25 13.25 23.75 13.25 23.75H26.75C26.75 23.75 24.5 22.25 24.5 17Z" fill="#F1F1F1" fill-opacity="0.1" stroke="#555555" stroke-width="2" stroke-linecap="round" stroke-linejoin="round"/>
<path d="M21.2975 26.7502C21.1657 26.9776 20.9764 27.1662 20.7487 27.2974C20.521 27.4286 20.2628 27.4976 20 27.4976C19.7372 27.4976 19.4791 27.4286 19.2513 27.2974C19.0236 27.1662 18.8344 26.9776 18.7025 26.7502" stroke="#555555" stroke-width="2" stroke-linecap="round" stroke-linejoin="round"/>
</g>
<defs>
<filter id="filter0_b_1_85" x="-10" y="-10" width="60" height="60" filterUnits="userSpaceOnUse" color-interpolation-filters="sRGB">
<feFlood flood-opacity="0" result="BackgroundImageFix"/>
<feGaussianBlur in="BackgroundImageFix" stdDeviation="5"/>
<feComposite in2="SourceAlpha" operator="in" result="effect1_backgroundBlur_1_85"/>
<feBlend mode="normal" in="SourceGraphic" in2="effect1_backgroundBlur_1_85" result="shape"/>
</filter>
<clipPath id="clip0_1_85">
<rect x="11" y="11.0002" width="18" height="18" fill="white"/>
</clipPath>
</defs>
</svg>
