<svg width="38" height="38" viewBox="0 0 38 38" fill="none" xmlns="http://www.w3.org/2000/svg">
<path d="M32.9751 15.3245C33.5129 15.3245 33.9242 14.9132 33.9242 14.3755C33.9242 13.8377 33.5129 13.4264 32.9751 13.4264H28.7682V13.2049C28.7682 10.9274 26.9336 9.09266 24.656 9.09266H24.4978V4.94912C24.4978 4.4114 24.0865 4.0001 23.5488 4.0001C23.011 4.0001 22.5997 4.41138 22.5997 4.94912V9.06136L19.9111 9.06114V4.9489C19.9111 4.41118 19.4998 3.99988 18.9621 3.99988C18.4243 3.99988 18.0131 4.41116 18.0131 4.9489V9.06114H15.3242V4.9489C15.3242 4.41118 14.9129 3.99988 14.3752 3.99988C13.8375 3.99988 13.4262 4.41116 13.4262 4.9489V9.06114H13.2682C10.9907 9.06114 9.15594 10.8958 9.15594 13.1734V13.3949H4.94902C4.4113 13.3949 4 13.8062 4 14.3439C4 14.8817 4.41129 15.293 4.94902 15.293L9.15594 15.2927V18.0131H4.94902C4.4113 18.0131 4 18.4244 4 18.9621C4 19.4999 4.41129 19.9112 4.94902 19.9112H9.15594V22.6L4.94902 22.5998C4.4113 22.5998 4 23.0111 4 23.5488C4 24.0865 4.41129 24.4978 4.94902 24.4978H9.15594V24.5927C9.15594 26.8702 10.9906 28.705 13.2682 28.705H13.4264V32.9754C13.4264 33.5131 13.8377 33.9244 14.3754 33.9244C14.9131 33.9244 15.3244 33.5132 15.3244 32.9754V28.705H18.0131V32.9754C18.0131 33.5131 18.4243 33.9244 18.9621 33.9244C19.4998 33.9244 19.9111 33.5132 19.9111 32.9754V28.705H22.6V32.9754C22.6 33.5131 23.0112 33.9244 23.549 33.9244C24.0867 33.9244 24.498 33.5132 24.498 32.9754L24.4978 28.705H24.656C26.9335 28.705 28.7682 26.8703 28.7682 24.5927V24.4978H32.9753C33.513 24.4978 33.9243 24.0865 33.9243 23.5488C33.9243 23.0111 33.513 22.5998 32.9753 22.5998H28.7682V19.9112H32.9753C33.513 19.9112 33.9243 19.4999 33.9243 18.9621C33.9243 18.4244 33.513 18.0131 32.9753 18.0131H28.7682V15.3243L32.9751 15.3245ZM26.8701 24.5927C26.8701 25.8264 25.8896 26.8069 24.6559 26.8069H13.2683C12.0347 26.8069 11.0541 25.8264 11.0541 24.5927V13.2051C11.0541 11.9715 12.0347 10.9909 13.2683 10.9909H24.6559C25.8896 10.9909 26.8701 11.9715 26.8701 13.2051V24.5927Z" fill="#278BC2"/>
<path fill-rule="evenodd" clip-rule="evenodd" d="M28.5782 13.6164V13.2049C28.5782 11.0323 26.8286 9.28265 24.656 9.28265H24.3078V4.94912C24.3078 4.51633 23.9816 4.19009 23.5488 4.19009C23.116 4.19009 22.7897 4.51632 22.7897 4.94912V9.25137L19.7211 9.25112V4.9489C19.7211 4.51611 19.3949 4.18987 18.9621 4.18987C18.5293 4.18987 18.2031 4.5161 18.2031 4.9489V9.25114H15.1342V4.9489C15.1342 4.51611 14.808 4.18987 14.3752 4.18987C13.9424 4.18987 13.6162 4.5161 13.6162 4.9489V9.25114H13.2682C11.0956 9.25114 9.34593 11.0007 9.34593 13.1734V13.5849H4.94902C4.51623 13.5849 4.19 13.9111 4.19 14.3439C4.19 14.7767 4.51622 15.103 4.94902 15.103L9.34593 15.1027V18.2031H4.94902C4.51623 18.2031 4.19 18.5293 4.19 18.9621C4.19 19.3949 4.51622 19.7212 4.94902 19.7212H9.34593V22.79L4.94901 22.7898C4.51623 22.7898 4.19 23.116 4.19 23.5488C4.19 23.9816 4.51622 24.3078 4.94902 24.3078H9.34593V24.5927C9.34593 26.7653 11.0955 28.515 13.2682 28.515H13.6164V32.9754C13.6164 33.4082 13.9426 33.7344 14.3754 33.7344C14.8082 33.7344 15.1344 33.4082 15.1344 32.9754V28.515H18.2031V32.9754C18.2031 33.4082 18.5293 33.7344 18.9621 33.7344C19.3949 33.7344 19.7211 33.4082 19.7211 32.9754V28.515H22.7899V32.9754C22.7899 33.4082 23.1162 33.7344 23.549 33.7344C23.9818 33.7344 24.308 33.4082 24.308 32.9754L24.3078 28.515H24.656C26.8286 28.515 28.5782 26.7654 28.5782 24.5927V24.3078H32.9753C33.4081 24.3078 33.7343 23.9816 33.7343 23.5488C33.7343 23.116 33.4081 22.7898 32.9753 22.7898H28.5782V19.7212H32.9753C33.4081 19.7212 33.7343 19.3949 33.7343 18.9621C33.7343 18.5293 33.4081 18.2031 32.9753 18.2031H28.5782V15.1343L32.9751 15.1345C33.4079 15.1345 33.7342 14.8083 33.7342 14.3755C33.7342 13.9426 33.4079 13.6164 32.9751 13.6164H28.5782ZM24.6639 28.7049C26.9378 28.7007 28.7682 26.8676 28.7682 24.5927V24.4978H32.9753C33.513 24.4978 33.9243 24.0865 33.9243 23.5488C33.9243 23.0111 33.513 22.5998 32.9753 22.5998H28.7682V19.9112H32.9753C33.513 19.9112 33.9243 19.4999 33.9243 18.9621C33.9243 18.4244 33.513 18.0131 32.9753 18.0131H28.7682V15.3243L32.9751 15.3245C33.5129 15.3245 33.9242 14.9132 33.9242 14.3755C33.9242 13.8377 33.5129 13.4264 32.9751 13.4264H28.7682V13.2049C28.7682 10.9274 26.9336 9.09266 24.656 9.09266H24.4978V4.94912C24.4978 4.4114 24.0865 4.0001 23.5488 4.0001C23.011 4.0001 22.5997 4.41138 22.5997 4.94912V9.06136L19.9111 9.06114V4.9489C19.9111 4.41118 19.4998 3.99988 18.9621 3.99988C18.4243 3.99988 18.0131 4.41116 18.0131 4.9489V9.06114H15.3242V4.9489C15.3242 4.41118 14.9129 3.99988 14.3752 3.99988C13.8375 3.99988 13.4262 4.41116 13.4262 4.9489V9.06114H13.2682C10.9907 9.06114 9.15594 10.8958 9.15594 13.1734V13.3949H4.94902C4.4113 13.3949 4 13.8062 4 14.3439C4 14.8817 4.41129 15.293 4.94902 15.293L9.15594 15.2927V18.0131H4.94902C4.4113 18.0131 4 18.4244 4 18.9621C4 19.4999 4.41129 19.9112 4.94902 19.9112H9.15594V22.6L4.94902 22.5998C4.4113 22.5998 4 23.0111 4 23.5488C4 24.0865 4.41129 24.4978 4.94902 24.4978H9.15594V24.5927C9.15594 26.8702 10.9906 28.705 13.2682 28.705H13.4264V32.9754C13.4264 33.5131 13.8377 33.9244 14.3754 33.9244C14.9131 33.9244 15.3244 33.5132 15.3244 32.9754V28.705H18.0131V32.9754C18.0131 33.5131 18.4243 33.9244 18.9621 33.9244C19.4998 33.9244 19.9111 33.5132 19.9111 32.9754V28.705H22.6V32.9754C22.6 33.5131 23.0112 33.9244 23.549 33.9244C24.0867 33.9244 24.498 33.5132 24.498 32.9754L24.4978 28.705H24.656C24.6586 28.705 24.6613 28.705 24.6639 28.7049ZM27.0601 24.5927C27.0601 25.9313 25.9945 26.9969 24.6559 26.9969H13.2683C11.9297 26.9969 10.8641 25.9313 10.8641 24.5927V13.2051C10.8641 11.8665 11.9297 10.8009 13.2683 10.8009H24.6559C25.9945 10.8009 27.0601 11.8665 27.0601 13.2051V24.5927ZM24.6559 26.8069C25.8896 26.8069 26.8701 25.8264 26.8701 24.5927V13.2051C26.8701 11.9715 25.8896 10.9909 24.6559 10.9909H13.2683C12.0347 10.9909 11.0541 11.9715 11.0541 13.2051V24.5927C11.0541 25.8264 12.0347 26.8069 13.2683 26.8069H24.6559Z" fill="white"/>
<path d="M11.0297 13.2145C11.0297 11.9553 12.0504 10.9345 13.3096 10.9345H24.6144C25.8735 10.9345 26.8943 11.9553 26.8943 13.2145V24.6142C26.8943 25.8734 25.8735 26.8942 24.6144 26.8942H13.3096C12.0504 26.8942 11.0297 25.8734 11.0297 24.6142V13.2145Z" fill="white"/>
<path d="M10.8397 13.2141C10.8397 11.8499 11.9456 10.7441 13.3097 10.7441H24.6144C25.9785 10.7441 27.0844 11.8499 27.0844 13.2141V24.6138C27.0844 25.9779 25.9785 27.0837 24.6144 27.0837H13.3097C11.9456 27.0837 10.8397 25.9779 10.8397 24.6138V13.2141Z" fill="url(#paint0_linear_1_547)"/>
<path d="M20.8282 14.1852H17.0957C15.5141 14.1852 14.2489 15.4504 14.2489 17.032V20.7329C14.2489 22.3145 15.5141 23.5797 17.0957 23.5797H20.7967C22.3783 23.5797 23.6434 22.3145 23.6434 20.7329V17.032C23.6752 15.4819 22.3783 14.1852 20.8282 14.1852ZM21.7772 20.7647C21.7772 21.3024 21.3659 21.7137 20.8282 21.7137L17.0957 21.7135C16.558 21.7135 16.1467 21.3022 16.1467 20.7645V17.032C16.1467 16.4943 16.558 16.0829 17.0957 16.0829H20.7967C21.3344 16.0829 21.7457 16.4942 21.7457 17.032V20.7647L21.7772 20.7647Z" fill="#278BC2"/>
<defs>
<linearGradient id="paint0_linear_1_547" x1="18.7672" y1="9.18795" x2="18.7672" y2="27.2783" gradientUnits="userSpaceOnUse">
<stop stop-color="#ABE1FF" stop-opacity="0"/>
<stop offset="1" stop-color="#ABE1FF"/>
</linearGradient>
</defs>
</svg>
