<svg width="38" height="38" viewBox="0 0 38 38" fill="none" xmlns="http://www.w3.org/2000/svg">
<path d="M26 19.6202C26 18.1731 24.6642 17 23.0164 17H14.9836C13.3358 17 12 18.1731 12 19.6202V27.3798C12 28.8269 13.3358 30 14.9836 30H23.0164C24.6642 30 26 28.8269 26 27.3798V19.6202Z" fill="url(#paint0_linear_1_526)"/>
<path d="M5.00008 9.21799C4.99496 8.61454 5.22507 8.03091 5.64587 7.57874C6.06668 7.12625 6.64863 6.83705 7.28063 6.7668C7.91223 6.69655 8.54893 6.84975 9.06901 7.19762C9.58871 7.54511 9.95515 8.06263 10.0974 8.65043C10.2396 9.23855 10.1482 9.85549 9.84006 10.3834C9.53234 10.911 9.02957 11.3127 8.42872 11.5107V17.3225C8.42872 17.954 8.69035 18.5601 9.15726 19.01L11.4165 21.1524L11.4169 20.2097C11.4169 19.3234 11.788 18.473 12.4492 17.8464C13.1103 17.2194 14.0067 16.8674 14.9413 16.8674H18.1556V11.5107C17.3806 11.2552 16.7801 10.6659 16.537 9.92307C16.2943 9.18025 16.4381 8.37202 16.9247 7.74577C17.4113 7.1199 18.1825 6.75 19.0028 6.75C19.8232 6.75 20.5942 7.11992 21.0809 7.74577C21.5675 8.37201 21.7113 9.18021 21.4686 9.92307C21.2255 10.6659 20.625 11.2552 19.85 11.5107V16.8674H23.0643C23.997 16.8685 24.8913 17.2209 25.5509 17.8464C26.2105 18.4719 26.5817 19.3196 26.5832 20.2045V21.1524L28.8424 19.0099C29.307 18.5627 29.5682 17.9611 29.5714 17.3334V11.5108C28.7963 11.2552 28.1958 10.6659 27.9527 9.92309C27.71 9.18027 27.8538 8.37204 28.3404 7.74579C28.8271 7.11992 29.5982 6.75002 30.4185 6.75002C31.2389 6.75002 32.0099 7.11994 32.4966 7.74579C32.9832 8.37203 33.127 9.18023 32.8843 9.92309C32.6412 10.6659 32.0407 11.2552 31.2657 11.5108V17.3226C31.2692 18.3777 30.8279 19.39 30.0403 20.135L26.7642 23.2419V23.2415C26.7062 23.2871 26.644 23.3263 26.5778 23.3596V27.913V27.9126C26.5762 28.7974 26.2051 29.6456 25.5451 30.2711C24.8855 30.8966 23.9916 31.2486 23.0585 31.25H14.9414C14.0088 31.2485 13.1144 30.8965 12.4548 30.2711C11.7952 29.6456 11.4241 28.7974 11.4225 27.9126V23.3592V23.3596C11.3563 23.3263 11.2937 23.2871 11.2362 23.2415L7.95999 20.1347V20.135C7.17196 19.39 6.73062 18.3777 6.73425 17.3226V11.5108C6.22991 11.3467 5.79176 11.0381 5.48087 10.6271C5.16999 10.2161 5.00214 9.72359 5.00017 9.21808L5.00008 9.21799ZM13.1172 27.9128C13.1172 28.372 13.3095 28.8118 13.6515 29.1365C13.9939 29.4608 14.4576 29.6432 14.9415 29.6432H23.0644C23.5483 29.6432 24.012 29.4609 24.3544 29.1365C24.6964 28.8118 24.8887 28.372 24.8887 27.9128V20.21C24.8903 19.7504 24.6988 19.3087 24.3564 18.9833C24.014 18.6575 23.5491 18.4744 23.0644 18.4744H14.9414C14.4576 18.4744 13.9938 18.6567 13.6514 18.9814C13.3094 19.3058 13.1172 19.7459 13.1172 20.2048L13.1172 27.9128ZM15.6929 21.9616V26.1615C15.6929 26.7354 16.1834 27.2006 16.7886 27.2006H21.2173C21.8225 27.2006 22.313 26.7354 22.313 26.1615V21.9616C22.313 21.3877 21.8224 20.9225 21.2173 20.9225H16.7886C16.1834 20.9225 15.6929 21.3877 15.6929 21.9616Z" fill="#278BC2"/>
<defs>
<linearGradient id="paint0_linear_1_526" x1="19.1679" y1="15.7619" x2="19.1679" y2="30.1548" gradientUnits="userSpaceOnUse">
<stop stop-color="#ABE1FF" stop-opacity="0"/>
<stop offset="1" stop-color="#ABE1FF"/>
</linearGradient>
</defs>
</svg>
