<svg width="51" height="27" viewBox="0 0 51 27" fill="none" xmlns="http://www.w3.org/2000/svg">
<rect width="51" height="27" rx="5" fill="#FFF2E1"/>
<path fill-rule="evenodd" clip-rule="evenodd" d="M8.84624 9.34885C7.14469 11.6613 7.04652 14.9291 8.6064 17.3423C8.93788 17.8552 9.29374 18.3271 9.39717 18.3911C9.50554 18.4581 9.77901 18.322 10.0416 18.0703L10.4979 17.6332L9.9583 16.9264C8.48177 14.9928 8.48177 12.0716 9.9583 10.138L10.4979 9.43124L10.0598 9.01147C9.81886 8.78071 9.57263 8.59186 9.51255 8.59186C9.45247 8.59186 9.1527 8.93242 8.84624 9.34885ZM18.9359 9.00924L18.5166 9.42853L19.0427 10.1176C20.5136 12.0447 20.5125 15.0212 19.0401 16.95L18.5117 17.6424L18.9701 18.0818C19.5129 18.6018 19.6393 18.537 20.4046 17.3444C21.91 14.9982 21.8591 11.8029 20.2806 9.55252C19.9499 9.08127 19.6063 8.67186 19.5173 8.64286C19.4282 8.61385 19.1665 8.77879 18.9359 9.00924ZM11.0447 10.6988C10.3258 11.4847 10.1201 12.1156 10.1207 13.5322C10.1212 14.9549 10.4114 15.8099 11.1077 16.4394C11.4018 16.7055 11.4329 16.6982 11.8513 16.2614L12.2879 15.8056L11.8936 15.2245C11.1687 14.1565 11.202 12.6868 11.9733 11.7062L12.3141 11.2729L11.8455 10.8042L11.3768 10.3356L11.0447 10.6988ZM17.1486 10.8031L16.7119 11.2589L17.1062 11.8399C17.83 12.9064 17.7978 14.3777 17.0294 15.3546L16.6915 15.7842L17.1384 16.2507C17.5668 16.6979 17.5978 16.7057 17.8922 16.4394C18.5888 15.8096 18.8787 14.955 18.8787 13.5322C18.8787 12.1094 18.5888 11.2549 17.8922 10.6251C17.598 10.3589 17.5669 10.3662 17.1486 10.8031ZM13.506 11.8692C12.2894 12.5293 12.3093 14.5671 13.5385 15.2029C14.8779 15.8955 16.4123 15.0035 16.4123 13.5322C16.4123 12.0587 14.8277 11.1521 13.506 11.8692Z" fill="#2F2F2F"/>
<path d="M28.8097 10.2273V17.5H27.929V11.1506H27.8864L26.1108 12.3295V11.4347L27.929 10.2273H28.8097ZM33.2734 17.5994C32.7384 17.5994 32.2827 17.4538 31.9062 17.1626C31.5298 16.8691 31.2422 16.4441 31.0433 15.8878C30.8445 15.3291 30.745 14.6544 30.745 13.8636C30.745 13.0777 30.8445 12.4065 31.0433 11.8501C31.2446 11.2914 31.5334 10.8653 31.9098 10.5717C32.2886 10.2758 32.7431 10.1278 33.2734 10.1278C33.8037 10.1278 34.2571 10.2758 34.6335 10.5717C35.0123 10.8653 35.3011 11.2914 35.5 11.8501C35.7012 12.4065 35.8018 13.0777 35.8018 13.8636C35.8018 14.6544 35.7024 15.3291 35.5036 15.8878C35.3047 16.4441 35.017 16.8691 34.6406 17.1626C34.2642 17.4538 33.8085 17.5994 33.2734 17.5994ZM33.2734 16.8182C33.8037 16.8182 34.2157 16.5625 34.5092 16.0511C34.8028 15.5398 34.9496 14.8106 34.9496 13.8636C34.9496 13.2339 34.8821 12.6977 34.7472 12.255C34.6146 11.8123 34.4228 11.4749 34.1719 11.2429C33.9233 11.0109 33.6238 10.8949 33.2734 10.8949C32.7479 10.8949 32.3371 11.1541 32.0412 11.6726C31.7453 12.1887 31.5973 12.919 31.5973 13.8636C31.5973 14.4934 31.6636 15.0284 31.7962 15.4688C31.9287 15.9091 32.1193 16.2441 32.3679 16.4737C32.6188 16.7034 32.9207 16.8182 33.2734 16.8182ZM36.9808 16.0085V15.2841L40.1768 10.2273H40.7024V11.3494H40.3473L37.9325 15.1705V15.2273H42.2365V16.0085H36.9808ZM40.4041 17.5V15.7884V15.451V10.2273H41.2422V17.5H40.4041Z" fill="#2F2F2F"/>
</svg>
