<svg width="38" height="38" viewBox="0 0 38 38" fill="none" xmlns="http://www.w3.org/2000/svg">
<path d="M20.7907 7.70756L14.1694 7.24948L13.7947 7.70756H5.46599L5.04956 25.1978L5.46599 27.2799H15.3355L16.6264 28.2377H21.582L22.8313 27.2799H32.8257L32.4925 26.2388L32.7007 7.91577L23.9973 7.24948L20.7907 7.70756Z" fill="url(#paint0_linear_1_490)"/>
<path fill-rule="evenodd" clip-rule="evenodd" d="M33.9641 29.163C33.9641 29.5808 33.6236 29.9205 33.2047 29.9205H4.79574C4.37686 29.9205 4.03634 29.5808 4.03634 29.163V27.7883H15.038L15.9502 28.6983C16.0502 28.7979 16.1864 28.8545 16.3281 28.8545H21.672C21.8137 28.8545 21.9499 28.7979 22.0499 28.6983L22.9621 27.7883H33.9638L33.9641 29.163ZM5.63943 8.70796C5.63943 8.35388 5.88207 8.06618 6.18037 8.06618H31.8198C32.1181 8.06618 32.3608 8.35388 32.3608 8.70796V26.7224H22.7412C22.5994 26.7224 22.4633 26.7784 22.3633 26.8785L21.451 27.7884H16.5492L15.637 26.8785C15.5369 26.7784 15.4008 26.7224 15.259 26.7224H5.63943V8.70796ZM34.4983 26.7224H33.4295V8.70796C33.4295 7.76601 32.7075 7 31.8197 7H6.18028C5.29257 7 4.57055 7.76601 4.57055 8.70796V26.7224H3.50177C3.2067 26.7224 2.96729 26.9612 2.96729 27.2555V29.1631C2.96729 30.169 3.7877 30.9866 4.79547 30.9866H33.2045C34.2122 30.9866 35.0326 30.1685 35.0326 29.1631V27.2555C35.0326 26.9612 34.7932 26.7224 34.4982 26.7224H34.4983Z" fill="#278BC2"/>
<path fill-rule="evenodd" clip-rule="evenodd" d="M7.24801 10.1663H11.5125C11.8066 10.1663 12.0454 9.94246 12.0454 9.66653C12.0454 9.39078 11.8066 9.1669 11.5125 9.1669H7.24801C6.95389 9.1669 6.71509 9.39079 6.71509 9.66653C6.71509 9.94246 6.95389 10.1663 7.24801 10.1663Z" fill="#278BC2"/>
<path fill-rule="evenodd" clip-rule="evenodd" d="M9.92768 11.2472H7.2504C6.95495 11.2472 6.71509 11.4897 6.71509 11.7886C6.71509 12.0874 6.95496 12.3299 7.2504 12.3299H9.92768C10.2231 12.3299 10.463 12.0874 10.463 11.7886C10.463 11.4897 10.2231 11.2472 9.92768 11.2472Z" fill="#278BC2"/>
<path fill-rule="evenodd" clip-rule="evenodd" d="M17.4093 15.4963C17.7035 15.4963 17.9423 15.2618 17.9423 14.9727V13.3885L19.2231 12.8341C19.4927 12.7173 19.6148 12.409 19.4959 12.1442C19.3776 11.8793 19.0626 11.7599 18.7933 11.8761L17.1944 12.5676C17.001 12.6514 16.8762 12.8393 16.8762 13.0467V14.9727C16.8762 15.2618 17.115 15.4963 17.4093 15.4963" fill="#278BC2"/>
<path fill-rule="evenodd" clip-rule="evenodd" d="M12.0344 22.1837V18.5377L15.2492 16.7105L18.4641 18.5377V22.1837L15.2492 24.0109L12.0344 22.1837ZM19.0001 10.3142L22.2149 12.1413V15.7874L20.929 16.518L19.0001 17.6146L17.0712 16.518L15.7852 15.7874V12.1413L19.0001 10.3142ZM25.9658 22.1837L22.7509 24.0109L19.536 22.1837V18.5377L22.7509 16.7105L25.9658 18.5377V22.1837ZM15.5152 25.0876L19 23.1069L22.4849 25.0876C22.5674 25.1346 22.6591 25.1579 22.7508 25.1579C22.8423 25.1579 22.9339 25.1346 23.0165 25.0876L26.7672 22.9554C26.9344 22.8612 27.0372 22.6841 27.0372 22.4928V18.2286C27.0372 18.0371 26.9344 17.8607 26.7672 17.7658L23.2865 15.7872V11.8321C23.2865 11.6406 23.1837 11.4643 23.0165 11.3693L19.2657 9.23731C19.1007 9.14343 18.8994 9.14343 18.7344 9.23731L14.9836 11.3693C14.8164 11.4643 14.7136 11.6406 14.7136 11.8321V15.7872L11.2329 17.7658C11.0657 17.8607 10.9629 18.0371 10.9629 18.2286V22.4928C10.9629 22.6841 11.0657 22.8612 11.2329 22.9554L14.9836 25.0876C15.0662 25.1346 15.1578 25.1579 15.2493 25.1579C15.341 25.1579 15.4327 25.1346 15.5152 25.0876H15.5152Z" fill="#278BC2"/>
<path fill-rule="evenodd" clip-rule="evenodd" d="M15.748 18.5567C15.6297 18.2922 15.3152 18.1713 15.0455 18.2885L13.4465 18.9801C13.253 19.0639 13.1283 19.2518 13.1283 19.4591V21.385C13.1283 21.6738 13.3671 21.9083 13.6612 21.9083C13.9555 21.9083 14.1943 21.6738 14.1943 21.385V19.8004L15.4751 19.2466C15.7448 19.1298 15.8668 18.821 15.748 18.5567" fill="#278BC2"/>
<path fill-rule="evenodd" clip-rule="evenodd" d="M22.5413 18.2885L20.9422 18.9799C20.7486 19.0637 20.624 19.2516 20.624 19.459V21.3848C20.624 21.6738 20.8628 21.9083 21.1569 21.9083C21.4512 21.9083 21.69 21.6738 21.69 21.3848V19.8007L22.9708 19.2464C23.2405 19.1296 23.3626 18.8213 23.2437 18.5565C23.1254 18.2922 22.8099 18.1713 22.5413 18.2885" fill="#278BC2"/>
<defs>
<linearGradient id="paint0_linear_1_490" x1="18.6045" y1="5.2506" x2="18.6045" y2="28.4876" gradientUnits="userSpaceOnUse">
<stop stop-color="#ABE1FF" stop-opacity="0"/>
<stop offset="1" stop-color="#ABE1FF"/>
</linearGradient>
</defs>
</svg>
