<svg width="375" height="245" viewBox="0 0 375 245" fill="none" xmlns="http://www.w3.org/2000/svg">
<g clip-path="url(#clip0_1_428)">
<rect width="375" height="245" fill="url(#paint0_linear_1_428)"/>
<rect width="375" height="245" fill="#0A5580"/>
<g opacity="0.05">
<mask id="mask0_1_428" style="mask-type:alpha" maskUnits="userSpaceOnUse" x="0" y="0" width="375" height="225">
<rect width="375" height="225" fill="#E7F6FF"/>
</mask>
<g mask="url(#mask0_1_428)">
<path d="M272.694 112.132L254.235 104.134C254.235 104.134 254.235 104.134 254.192 104.123C254.149 104.112 254.106 104.1 254.106 104.1C254.062 104.089 254.062 104.089 254.019 104.078C253.976 104.067 253.922 104.099 253.922 104.099C253.922 104.099 253.878 104.088 253.867 104.131L244.074 109.903C244.019 109.935 244.019 109.935 244.008 109.978L243.954 110.01C243.899 110.042 243.877 110.128 243.866 110.172L238.894 129.412C238.883 129.455 238.872 129.498 238.893 129.596L238.881 129.639C238.87 129.683 238.902 129.737 238.946 129.748C238.946 129.748 238.989 129.759 238.978 129.803C239.01 129.857 239.01 129.857 239.053 129.868C239.053 129.868 239.096 129.879 239.128 129.934L239.171 129.945L257.63 137.943C257.673 137.954 257.673 137.954 257.716 137.965C257.759 137.977 257.803 137.988 257.9 137.967C257.9 137.967 257.943 137.978 257.955 137.935C257.998 137.946 258.009 137.903 258.052 137.914L267.846 132.142C267.9 132.11 267.9 132.11 267.911 132.067L267.966 132.035C268.02 132.003 268.043 131.916 268.054 131.873L273.014 112.676C272.984 112.438 272.899 112.231 272.694 112.132ZM253.38 105.481L251.458 112.918L245.273 110.259L253.38 105.481ZM244.596 110.914L251.235 113.782L248.732 123.467L240.027 128.598L244.596 110.914ZM257.432 136.923L240.313 129.456L249.127 124.261L259.532 128.795L257.432 136.923ZM259.767 127.887L249.61 123.464L252.012 114.168L262.169 118.591L259.767 127.887ZM262.781 117.827L252.29 113.271L254.39 105.142L271.596 112.632L262.781 117.827ZM258.442 136.585L260.363 129.148L266.549 131.807L258.442 136.585ZM267.225 131.152L260.587 128.283L263.067 118.685L271.773 113.555L267.225 131.152Z" fill="white"/>
<path d="M10.1163 -16.3014L62.1033 50.9513L-22.1291 62.3485L10.1163 -16.3014ZM10.6251 -12.541L-3.62575 22.2228L33.602 17.1856L10.6251 -12.541ZM58.6526 49.5036L35.6758 19.7769L21.4249 54.5408L58.6526 49.5036ZM33.8564 19.0658L-3.37135 24.103L19.6055 53.8296L33.8564 19.0658ZM-4.84231 25.2593L-19.0932 60.0231L18.1346 54.986L-4.84231 25.2593Z" fill="white"/>
<path d="M200.43 -19.7043C200.795 -19.557 201.021 -19.1295 200.938 -18.7456L187.836 47.3073C187.75 47.7396 187.279 48.0549 186.847 47.9692L120.794 34.8678C120.362 34.782 120.046 34.3106 120.132 33.8783L133.233 -32.1745C133.319 -32.6068 133.791 -32.9221 134.223 -32.8364C156.289 -28.4597 178.376 -24.0788 200.43 -19.7043ZM199.122 -18.2475L167.747 -24.4706L161.524 6.90448L192.899 13.1276L199.122 -18.2475ZM166.096 -24.7982L134.721 -31.0213L128.498 0.35378L159.873 6.57694L166.096 -24.7982ZM181.742 -12.2821C182.137 -12.1508 182.392 -11.6926 182.295 -11.2874L181.313 -6.33339C183.008 -5.99712 184.739 -5.65381 186.422 -5.32008C186.846 -5.19379 187.117 -4.69287 186.991 -4.26859C186.864 -3.84432 186.363 -3.57318 185.939 -3.69946L180.985 -4.68207L180.003 0.271898C179.922 0.709335 179.447 1.03208 179.011 0.94555C178.575 0.859021 178.259 0.379348 178.351 -0.0556366L179.334 -5.0096L174.38 -5.9922C173.943 -6.07253 173.62 -6.54771 173.706 -6.98396C173.793 -7.42021 174.272 -7.73621 174.707 -7.64353L179.661 -6.66092L180.644 -11.6149C180.72 -12.096 181.28 -12.4362 181.742 -12.2821ZM151.69 -16.5264C152.304 -16.3415 152.44 -15.3538 151.899 -15.0101L146.669 -11.4886L150.164 -6.26323C150.407 -5.89221 150.29 -5.33398 149.919 -5.0916C149.548 -4.84922 148.989 -4.9664 148.747 -5.33756L145.252 -10.563L140.026 -7.06735C139.661 -6.81677 139.1 -6.9215 138.849 -7.28717C138.599 -7.65284 138.704 -8.21348 139.07 -8.46385L144.295 -11.9595L140.804 -17.2107C140.415 -17.7705 141.045 -18.677 141.705 -18.507C141.916 -18.4563 142.106 -18.3203 142.222 -18.1364L145.717 -12.911L150.943 -16.4066C151.155 -16.5599 151.441 -16.6057 151.69 -16.5264ZM192.572 14.779L161.197 8.5558L154.974 39.9309L186.349 46.1541L192.572 14.779ZM159.545 8.22826L128.17 2.0051L121.947 33.3802L153.322 39.6034L159.545 8.22826ZM147.663 17.0274C148.088 17.1536 148.359 17.6546 148.232 18.0788C148.106 18.5031 147.605 18.7742 147.181 18.648L135.622 16.3552C135.184 16.2749 134.861 15.7997 134.948 15.3635C135.035 14.9272 135.514 14.6112 135.949 14.7039C139.848 15.4773 143.776 16.2563 147.663 17.0274ZM178.056 28.2045C178.48 28.3308 178.751 28.8317 178.625 29.256C178.499 29.6802 177.998 29.9514 177.573 29.8251L166.014 27.5323C165.577 27.452 165.254 26.9768 165.341 26.5406C165.427 26.1043 165.907 25.7883 166.342 25.881C170.241 26.6544 174.169 27.4335 178.056 28.2045ZM146.026 25.284C146.45 25.4102 146.721 25.9112 146.595 26.3354C146.468 26.7597 145.968 27.0308 145.543 26.9046L133.984 24.6118C133.547 24.5315 133.224 24.0563 133.31 23.6201C133.397 23.1838 133.877 22.8678 134.312 22.9605C138.211 23.7339 142.138 24.5129 146.026 25.284Z" fill="white"/>
</g>
</g>
<mask id="path-6-inside-1_1_428" fill="white">
<path fill-rule="evenodd" clip-rule="evenodd" d="M365.579 36.9993C365.579 39.5199 363.758 41.6195 361.239 41.8997L354.52 42.5999C354.45 42.7401 354.38 42.9151 354.31 43.0902C354.24 43.2652 354.17 43.4403 354.1 43.5804L358.581 49.0403C359.141 49.7406 359.422 50.7201 359.561 51.7005H370.201C371.181 51.7005 372.161 52.2601 372.441 53.2406L375.521 61.7804H381.12C382.101 58.2805 385.32 55.6203 389.24 55.6203C394 55.6203 397.78 59.4005 397.78 64.1601C397.78 68.9198 394 72.7 389.24 72.7C385.46 72.7 382.101 70.0398 381.12 66.5398H373.84C372.86 66.5398 371.88 65.9803 371.6 64.9998L368.52 56.46H357.32L354.24 59.5399V70.74L362.78 73.8199C363.62 74.1002 364.32 75.0797 364.32 76.0601V83.3402C367.82 84.3205 370.48 87.5402 370.48 91.4601C370.48 96.2198 366.7 100 361.94 100C357.181 100 353.4 96.2198 353.4 91.4601C353.4 87.6799 356.061 84.3207 359.561 83.3402V77.7408L351.021 74.6609C350.181 74.3806 349.481 73.4012 349.481 72.4207V61.7811C348.5 61.7811 347.66 61.5008 346.82 60.8007L341.361 56.3202C341.22 56.3901 341.045 56.4601 340.87 56.5302C340.695 56.6003 340.52 56.6703 340.38 56.7402L339.68 63.74C339.399 66.2594 337.299 68.0797 334.779 68.0797H333.659L333.661 83.3392C337.161 84.3195 339.821 87.5392 339.821 91.4591C339.821 96.2188 336.041 99.999 331.282 99.999C326.522 99.999 322.742 96.2188 322.742 91.4591C322.742 87.6789 325.402 84.3197 328.902 83.3392V68.0797H327.782C325.261 68.0797 323.162 66.2595 322.881 63.74L322.181 56.7402C322.041 56.6703 321.866 56.6003 321.691 56.5302C321.516 56.4601 321.341 56.3901 321.201 56.3202L315.741 60.8007C315.041 61.3612 314.061 61.6415 313.081 61.7811V72.4207C313.081 73.4011 312.521 74.3806 311.541 74.6609L303.001 77.7408V83.3402C306.501 84.3205 309.161 87.5402 309.161 91.4601C309.161 96.2198 305.381 100 300.621 100C295.861 100 292.081 96.2198 292.081 91.4601C292.081 87.6799 294.741 84.3207 298.241 83.3402V76.0601C298.241 75.0797 298.801 74.1002 299.781 73.8199L308.321 70.74V59.5399L305.241 56.46H294.041L290.961 64.9998C290.681 65.8397 289.701 66.5398 288.721 66.5398H281.441C280.461 70.0398 277.241 72.7 273.321 72.7C268.561 72.7 264.781 68.9198 264.781 64.1601C264.781 59.4005 268.561 55.6203 273.321 55.6203C277.101 55.6203 280.46 58.2805 281.441 61.7804H287.04L290.12 53.2406C290.401 52.4007 291.38 51.7005 292.36 51.7005H303C303 50.72 303.28 49.8802 303.98 49.0403L308.46 43.8606C308.39 43.7205 308.32 43.5455 308.25 43.3704C308.18 43.1954 308.11 43.0203 308.04 42.8802L301.04 42.18C298.521 41.8995 296.7 39.799 296.7 37.2796V36.1595H281.441C280.461 39.6594 277.241 42.3196 273.321 42.3196C268.561 42.3196 264.781 38.5394 264.781 33.7798C264.781 29.0201 268.561 25.2399 273.321 25.2399C277.101 25.2399 280.46 27.9001 281.441 31.4L296.7 31.402V30.2819C296.7 27.7613 298.521 25.6617 301.04 25.3815L308.04 24.6813C308.11 24.5411 308.18 24.3661 308.25 24.191C308.32 24.016 308.39 23.841 308.46 23.7008L303.979 18.2409C303.419 17.5406 303.139 16.5612 302.999 15.5807H292.359C291.379 15.5807 290.4 15.0211 290.119 14.0407L287.039 5.50081H281.44C280.46 9.00076 277.24 11.661 273.32 11.661C268.56 11.661 264.78 7.88078 264.78 3.1211C264.78 -1.63857 268.56 -5.41876 273.32 -5.41876C277.1 -5.41876 280.459 -2.75855 281.44 0.74139H288.72C289.7 0.74139 290.68 1.30096 290.96 2.28141L294.04 10.8213H305.24L308.32 7.74133V-3.45874L299.78 -6.5387C298.94 -6.81897 298.24 -7.79842 298.24 -8.77888V-16.059C294.74 -17.0393 292.08 -20.259 292.08 -24.1789C292.08 -28.9386 295.86 -32.7188 300.62 -32.7188C305.38 -32.7188 309.16 -28.9386 309.16 -24.1789C309.16 -20.3987 306.5 -17.0395 303 -16.059V-10.4596L311.54 -7.37966C312.379 -7.09938 313.08 -6.11993 313.08 -5.13947V5.50011C314.06 5.50011 314.9 5.78038 315.74 6.48057L320.919 10.96C321.06 10.8902 321.235 10.8201 321.41 10.75C321.585 10.68 321.76 10.6099 321.9 10.5401L322.6 3.5402C322.881 1.02079 324.981 -0.799488 327.501 -0.799488H328.621V-16.059C325.121 -17.0392 322.461 -20.2589 322.461 -24.1789C322.461 -28.9385 326.241 -32.7187 331 -32.7187C335.76 -32.7187 339.54 -28.9385 339.54 -24.1789C339.54 -20.3987 336.88 -17.0395 333.38 -16.059L333.379 -1.07973H334.499C337.02 -1.07973 339.119 0.74049 339.4 3.25995L340.1 10.2598C340.24 10.3297 340.415 10.3997 340.59 10.4698C340.765 10.5399 340.94 10.6099 341.08 10.6798L346.54 6.19933C347.24 5.63879 348.22 5.35851 349.2 5.21887V-5.42071C349.2 -6.40115 349.76 -7.38063 350.74 -7.6609L359.28 -10.7409V-16.3403C355.78 -17.3205 353.12 -20.5402 353.12 -24.4601C353.12 -29.2198 356.9 -33 361.66 -33C366.42 -33 370.2 -29.2198 370.2 -24.4601C370.2 -20.6799 367.54 -17.3207 364.04 -16.3403V-9.06013C364.04 -8.07969 363.48 -7.10021 362.5 -6.81994L353.96 -3.73999V7.46008L357.04 10.54H368.24L371.32 2.00017C371.6 1.16033 372.58 0.460144 373.56 0.460144H380.84C381.82 -3.0398 385.04 -5.70001 388.96 -5.70001C393.72 -5.70001 397.5 -1.91982 397.5 2.83986C397.5 7.59953 393.72 11.3797 388.96 11.3797C385.18 11.3797 381.821 8.71951 380.84 5.21957H375.241L372.161 13.7594C371.88 14.5993 370.901 15.2995 369.921 15.2995H359.281C359.281 16.28 359.001 17.1198 358.301 17.9597L353.82 23.4196C353.89 23.5597 353.96 23.7348 354.03 23.9098C354.1 24.0849 354.17 24.2599 354.24 24.4L361.24 25.1002C363.759 25.3807 365.58 27.4812 365.58 30.0006V31.1208L380.838 31.1198C381.818 27.6198 385.038 24.9596 388.958 24.9596C393.718 24.9596 397.498 28.7398 397.498 33.4995C397.498 38.2592 393.718 42.0394 388.958 42.0394C385.178 42.0394 381.819 39.3792 380.838 35.8792H365.579V36.9993ZM392.879 33.6401C392.879 31.5396 391.198 29.8599 389.098 29.8599C386.999 29.8599 385.318 31.5406 385.318 33.6401C385.318 35.7406 386.999 37.4203 389.098 37.4203C391.199 37.4203 392.879 35.7397 392.879 33.6401ZM392.879 2.9806C392.879 0.880085 391.198 -0.799587 389.098 -0.799587C386.999 -0.799587 385.318 0.881035 385.318 2.9806C385.318 5.08112 386.999 6.76079 389.098 6.76079C391.199 6.76079 392.879 5.08017 392.879 2.9806ZM361.659 -28.0989C359.559 -28.0989 357.879 -26.4183 357.879 -24.3187C357.879 -22.2192 359.698 -20.5385 361.659 -20.5385C363.76 -20.5385 365.439 -22.2191 365.439 -24.3187C365.439 -26.4192 363.759 -28.0989 361.659 -28.0989ZM331.14 -28.0989C329.039 -28.0989 327.359 -26.4183 327.359 -24.3187C327.359 -22.2192 329.04 -20.5385 331.14 -20.5385C333.24 -20.5385 334.92 -22.2191 334.92 -24.3187C334.92 -26.4192 333.239 -28.0989 331.14 -28.0989ZM300.48 -28.0989C298.38 -28.0989 296.7 -26.4183 296.7 -24.3187C296.7 -22.2192 298.381 -20.5385 300.48 -20.5385C302.581 -20.5385 304.26 -22.2191 304.26 -24.3187C304.26 -26.4192 302.58 -28.0989 300.48 -28.0989ZM269.401 3.1206C269.401 5.22112 271.081 6.90079 273.181 6.90079C275.28 6.90079 276.961 5.08152 276.961 3.1206C276.961 1.02008 275.28 -0.659588 273.181 -0.659588C271.08 -0.659588 269.401 1.02103 269.401 3.1206ZM269.401 33.6401C269.401 35.7406 271.081 37.4203 273.181 37.4203C275.28 37.4203 276.961 35.7397 276.961 33.6401C276.961 31.5396 275.28 29.8599 273.181 29.8599C271.08 29.8599 269.401 31.5406 269.401 33.6401ZM269.401 64.2996C269.401 66.4001 271.081 68.0798 273.181 68.0798C275.28 68.0798 276.961 66.3992 276.961 64.2996C276.961 62.1991 275.28 60.5194 273.181 60.5194C271.08 60.5194 269.401 62.2001 269.401 64.2996ZM300.62 95.3792C302.721 95.3792 304.4 93.6985 304.4 91.5989C304.4 89.4994 302.581 87.8188 300.62 87.8188C298.52 87.8188 296.84 89.4994 296.84 91.5989C296.84 93.6995 298.521 95.3792 300.62 95.3792ZM331.14 95.3792C333.24 95.3792 334.92 93.6985 334.92 91.5989C334.92 89.4994 333.239 87.8188 331.14 87.8188C329.039 87.8188 327.359 89.4994 327.359 91.5989C327.359 93.6995 329.04 95.3792 331.14 95.3792ZM361.799 95.3792C363.9 95.3792 365.579 93.6985 365.579 91.5989C365.579 89.4994 363.899 87.8188 361.799 87.8188C359.699 87.8188 358.019 89.4994 358.019 91.5989C358.019 93.6995 359.7 95.3792 361.799 95.3792ZM392.879 64.1596C392.879 62.0591 391.198 60.3794 389.098 60.3794C386.999 60.3794 385.318 62.1987 385.318 64.1596C385.318 66.2601 386.999 67.9398 389.098 67.9398C391.199 67.9398 392.879 66.2592 392.879 64.1596ZM350.039 40.0789C350.459 38.9598 351.439 38.1189 352.699 37.9793L360.818 37.1393L360.957 30.1394L352.838 29.159C351.578 29.0193 350.597 28.1795 350.177 27.0594L350.177 27.0593C349.897 26.2195 349.617 25.3797 349.197 24.6796C348.777 23.5596 348.917 22.2998 349.617 21.3194L354.657 15.0197L349.756 9.97979L343.316 15.0197C342.336 15.8596 341.076 15.9992 339.956 15.4396C339.116 15.0187 338.416 14.7394 337.576 14.4592C336.457 14.0392 335.616 13.0587 335.476 11.799L334.637 3.81859L327.637 3.67895L327.497 3.81859L326.657 11.799C326.518 13.0588 325.678 14.0393 324.558 14.4592L324.557 14.4592C323.718 14.7395 322.878 15.0197 322.178 15.4396C321.058 16.0002 319.798 15.7199 318.818 15.0197L312.518 9.97979L307.478 14.8802L312.518 21.3206C313.358 22.301 313.497 23.5607 312.938 24.6808C312.517 25.5206 312.238 26.2208 311.957 27.0606C311.537 28.1798 310.557 29.0206 309.297 29.1602L301.317 30.0001L301.177 36.9999L309.297 37.9804C310.557 38.12 311.537 38.9599 311.957 40.08L311.957 40.0801C312.238 40.9199 312.518 41.7597 312.938 42.4598C313.358 43.5798 313.218 44.8395 312.518 45.82L307.478 52.1197L312.378 57.1596L318.819 52.1197C319.378 51.6997 320.078 51.4195 320.779 51.4195C321.339 51.4195 321.759 51.4195 322.179 51.6997C323.019 52.1206 323.719 52.3999 324.559 52.6802C325.678 53.1002 326.519 54.0806 326.658 55.3404L327.498 63.3208L334.498 63.4604L335.479 55.3405C335.618 54.0807 336.458 53.1003 337.578 52.6803L337.578 52.6802C338.418 52.4 339.258 52.1198 339.958 51.6999C341.078 51.1393 342.338 51.28 343.318 52.1198L349.478 57.1597L354.518 52.2593L349.478 45.8189C348.638 44.8385 348.499 43.5788 349.058 42.4587C349.479 41.6189 349.759 40.9187 350.039 40.0789ZM317.279 33.6403C317.279 26.0799 323.439 19.7803 331.139 19.7803C338.839 19.7803 344.999 26.0809 344.999 33.6403C344.999 41.2007 338.699 47.5003 331.139 47.5003C323.579 47.5003 317.279 41.1997 317.279 33.6403ZM321.899 33.6403C321.899 38.821 326.099 42.8804 331.139 42.8804C336.179 42.8804 340.38 38.82 340.38 33.6403C340.38 28.4596 336.319 24.4002 331.139 24.4002C325.959 24.4002 321.899 28.4606 321.899 33.6403Z"/>
</mask>
<path fill-rule="evenodd" clip-rule="evenodd" d="M365.579 36.9993C365.579 39.5199 363.758 41.6195 361.239 41.8997L354.52 42.5999C354.45 42.7401 354.38 42.9151 354.31 43.0902C354.24 43.2652 354.17 43.4403 354.1 43.5804L358.581 49.0403C359.141 49.7406 359.422 50.7201 359.561 51.7005H370.201C371.181 51.7005 372.161 52.2601 372.441 53.2406L375.521 61.7804H381.12C382.101 58.2805 385.32 55.6203 389.24 55.6203C394 55.6203 397.78 59.4005 397.78 64.1601C397.78 68.9198 394 72.7 389.24 72.7C385.46 72.7 382.101 70.0398 381.12 66.5398H373.84C372.86 66.5398 371.88 65.9803 371.6 64.9998L368.52 56.46H357.32L354.24 59.5399V70.74L362.78 73.8199C363.62 74.1002 364.32 75.0797 364.32 76.0601V83.3402C367.82 84.3205 370.48 87.5402 370.48 91.4601C370.48 96.2198 366.7 100 361.94 100C357.181 100 353.4 96.2198 353.4 91.4601C353.4 87.6799 356.061 84.3207 359.561 83.3402V77.7408L351.021 74.6609C350.181 74.3806 349.481 73.4012 349.481 72.4207V61.7811C348.5 61.7811 347.66 61.5008 346.82 60.8007L341.361 56.3202C341.22 56.3901 341.045 56.4601 340.87 56.5302C340.695 56.6003 340.52 56.6703 340.38 56.7402L339.68 63.74C339.399 66.2594 337.299 68.0797 334.779 68.0797H333.659L333.661 83.3392C337.161 84.3195 339.821 87.5392 339.821 91.4591C339.821 96.2188 336.041 99.999 331.282 99.999C326.522 99.999 322.742 96.2188 322.742 91.4591C322.742 87.6789 325.402 84.3197 328.902 83.3392V68.0797H327.782C325.261 68.0797 323.162 66.2595 322.881 63.74L322.181 56.7402C322.041 56.6703 321.866 56.6003 321.691 56.5302C321.516 56.4601 321.341 56.3901 321.201 56.3202L315.741 60.8007C315.041 61.3612 314.061 61.6415 313.081 61.7811V72.4207C313.081 73.4011 312.521 74.3806 311.541 74.6609L303.001 77.7408V83.3402C306.501 84.3205 309.161 87.5402 309.161 91.4601C309.161 96.2198 305.381 100 300.621 100C295.861 100 292.081 96.2198 292.081 91.4601C292.081 87.6799 294.741 84.3207 298.241 83.3402V76.0601C298.241 75.0797 298.801 74.1002 299.781 73.8199L308.321 70.74V59.5399L305.241 56.46H294.041L290.961 64.9998C290.681 65.8397 289.701 66.5398 288.721 66.5398H281.441C280.461 70.0398 277.241 72.7 273.321 72.7C268.561 72.7 264.781 68.9198 264.781 64.1601C264.781 59.4005 268.561 55.6203 273.321 55.6203C277.101 55.6203 280.46 58.2805 281.441 61.7804H287.04L290.12 53.2406C290.401 52.4007 291.38 51.7005 292.36 51.7005H303C303 50.72 303.28 49.8802 303.98 49.0403L308.46 43.8606C308.39 43.7205 308.32 43.5455 308.25 43.3704C308.18 43.1954 308.11 43.0203 308.04 42.8802L301.04 42.18C298.521 41.8995 296.7 39.799 296.7 37.2796V36.1595H281.441C280.461 39.6594 277.241 42.3196 273.321 42.3196C268.561 42.3196 264.781 38.5394 264.781 33.7798C264.781 29.0201 268.561 25.2399 273.321 25.2399C277.101 25.2399 280.46 27.9001 281.441 31.4L296.7 31.402V30.2819C296.7 27.7613 298.521 25.6617 301.04 25.3815L308.04 24.6813C308.11 24.5411 308.18 24.3661 308.25 24.191C308.32 24.016 308.39 23.841 308.46 23.7008L303.979 18.2409C303.419 17.5406 303.139 16.5612 302.999 15.5807H292.359C291.379 15.5807 290.4 15.0211 290.119 14.0407L287.039 5.50081H281.44C280.46 9.00076 277.24 11.661 273.32 11.661C268.56 11.661 264.78 7.88078 264.78 3.1211C264.78 -1.63857 268.56 -5.41876 273.32 -5.41876C277.1 -5.41876 280.459 -2.75855 281.44 0.74139H288.72C289.7 0.74139 290.68 1.30096 290.96 2.28141L294.04 10.8213H305.24L308.32 7.74133V-3.45874L299.78 -6.5387C298.94 -6.81897 298.24 -7.79842 298.24 -8.77888V-16.059C294.74 -17.0393 292.08 -20.259 292.08 -24.1789C292.08 -28.9386 295.86 -32.7188 300.62 -32.7188C305.38 -32.7188 309.16 -28.9386 309.16 -24.1789C309.16 -20.3987 306.5 -17.0395 303 -16.059V-10.4596L311.54 -7.37966C312.379 -7.09938 313.08 -6.11993 313.08 -5.13947V5.50011C314.06 5.50011 314.9 5.78038 315.74 6.48057L320.919 10.96C321.06 10.8902 321.235 10.8201 321.41 10.75C321.585 10.68 321.76 10.6099 321.9 10.5401L322.6 3.5402C322.881 1.02079 324.981 -0.799488 327.501 -0.799488H328.621V-16.059C325.121 -17.0392 322.461 -20.2589 322.461 -24.1789C322.461 -28.9385 326.241 -32.7187 331 -32.7187C335.76 -32.7187 339.54 -28.9385 339.54 -24.1789C339.54 -20.3987 336.88 -17.0395 333.38 -16.059L333.379 -1.07973H334.499C337.02 -1.07973 339.119 0.74049 339.4 3.25995L340.1 10.2598C340.24 10.3297 340.415 10.3997 340.59 10.4698C340.765 10.5399 340.94 10.6099 341.08 10.6798L346.54 6.19933C347.24 5.63879 348.22 5.35851 349.2 5.21887V-5.42071C349.2 -6.40115 349.76 -7.38063 350.74 -7.6609L359.28 -10.7409V-16.3403C355.78 -17.3205 353.12 -20.5402 353.12 -24.4601C353.12 -29.2198 356.9 -33 361.66 -33C366.42 -33 370.2 -29.2198 370.2 -24.4601C370.2 -20.6799 367.54 -17.3207 364.04 -16.3403V-9.06013C364.04 -8.07969 363.48 -7.10021 362.5 -6.81994L353.96 -3.73999V7.46008L357.04 10.54H368.24L371.32 2.00017C371.6 1.16033 372.58 0.460144 373.56 0.460144H380.84C381.82 -3.0398 385.04 -5.70001 388.96 -5.70001C393.72 -5.70001 397.5 -1.91982 397.5 2.83986C397.5 7.59953 393.72 11.3797 388.96 11.3797C385.18 11.3797 381.821 8.71951 380.84 5.21957H375.241L372.161 13.7594C371.88 14.5993 370.901 15.2995 369.921 15.2995H359.281C359.281 16.28 359.001 17.1198 358.301 17.9597L353.82 23.4196C353.89 23.5597 353.96 23.7348 354.03 23.9098C354.1 24.0849 354.17 24.2599 354.24 24.4L361.24 25.1002C363.759 25.3807 365.58 27.4812 365.58 30.0006V31.1208L380.838 31.1198C381.818 27.6198 385.038 24.9596 388.958 24.9596C393.718 24.9596 397.498 28.7398 397.498 33.4995C397.498 38.2592 393.718 42.0394 388.958 42.0394C385.178 42.0394 381.819 39.3792 380.838 35.8792H365.579V36.9993ZM392.879 33.6401C392.879 31.5396 391.198 29.8599 389.098 29.8599C386.999 29.8599 385.318 31.5406 385.318 33.6401C385.318 35.7406 386.999 37.4203 389.098 37.4203C391.199 37.4203 392.879 35.7397 392.879 33.6401ZM392.879 2.9806C392.879 0.880085 391.198 -0.799587 389.098 -0.799587C386.999 -0.799587 385.318 0.881035 385.318 2.9806C385.318 5.08112 386.999 6.76079 389.098 6.76079C391.199 6.76079 392.879 5.08017 392.879 2.9806ZM361.659 -28.0989C359.559 -28.0989 357.879 -26.4183 357.879 -24.3187C357.879 -22.2192 359.698 -20.5385 361.659 -20.5385C363.76 -20.5385 365.439 -22.2191 365.439 -24.3187C365.439 -26.4192 363.759 -28.0989 361.659 -28.0989ZM331.14 -28.0989C329.039 -28.0989 327.359 -26.4183 327.359 -24.3187C327.359 -22.2192 329.04 -20.5385 331.14 -20.5385C333.24 -20.5385 334.92 -22.2191 334.92 -24.3187C334.92 -26.4192 333.239 -28.0989 331.14 -28.0989ZM300.48 -28.0989C298.38 -28.0989 296.7 -26.4183 296.7 -24.3187C296.7 -22.2192 298.381 -20.5385 300.48 -20.5385C302.581 -20.5385 304.26 -22.2191 304.26 -24.3187C304.26 -26.4192 302.58 -28.0989 300.48 -28.0989ZM269.401 3.1206C269.401 5.22112 271.081 6.90079 273.181 6.90079C275.28 6.90079 276.961 5.08152 276.961 3.1206C276.961 1.02008 275.28 -0.659588 273.181 -0.659588C271.08 -0.659588 269.401 1.02103 269.401 3.1206ZM269.401 33.6401C269.401 35.7406 271.081 37.4203 273.181 37.4203C275.28 37.4203 276.961 35.7397 276.961 33.6401C276.961 31.5396 275.28 29.8599 273.181 29.8599C271.08 29.8599 269.401 31.5406 269.401 33.6401ZM269.401 64.2996C269.401 66.4001 271.081 68.0798 273.181 68.0798C275.28 68.0798 276.961 66.3992 276.961 64.2996C276.961 62.1991 275.28 60.5194 273.181 60.5194C271.08 60.5194 269.401 62.2001 269.401 64.2996ZM300.62 95.3792C302.721 95.3792 304.4 93.6985 304.4 91.5989C304.4 89.4994 302.581 87.8188 300.62 87.8188C298.52 87.8188 296.84 89.4994 296.84 91.5989C296.84 93.6995 298.521 95.3792 300.62 95.3792ZM331.14 95.3792C333.24 95.3792 334.92 93.6985 334.92 91.5989C334.92 89.4994 333.239 87.8188 331.14 87.8188C329.039 87.8188 327.359 89.4994 327.359 91.5989C327.359 93.6995 329.04 95.3792 331.14 95.3792ZM361.799 95.3792C363.9 95.3792 365.579 93.6985 365.579 91.5989C365.579 89.4994 363.899 87.8188 361.799 87.8188C359.699 87.8188 358.019 89.4994 358.019 91.5989C358.019 93.6995 359.7 95.3792 361.799 95.3792ZM392.879 64.1596C392.879 62.0591 391.198 60.3794 389.098 60.3794C386.999 60.3794 385.318 62.1987 385.318 64.1596C385.318 66.2601 386.999 67.9398 389.098 67.9398C391.199 67.9398 392.879 66.2592 392.879 64.1596ZM350.039 40.0789C350.459 38.9598 351.439 38.1189 352.699 37.9793L360.818 37.1393L360.957 30.1394L352.838 29.159C351.578 29.0193 350.597 28.1795 350.177 27.0594L350.177 27.0593C349.897 26.2195 349.617 25.3797 349.197 24.6796C348.777 23.5596 348.917 22.2998 349.617 21.3194L354.657 15.0197L349.756 9.97979L343.316 15.0197C342.336 15.8596 341.076 15.9992 339.956 15.4396C339.116 15.0187 338.416 14.7394 337.576 14.4592C336.457 14.0392 335.616 13.0587 335.476 11.799L334.637 3.81859L327.637 3.67895L327.497 3.81859L326.657 11.799C326.518 13.0588 325.678 14.0393 324.558 14.4592L324.557 14.4592C323.718 14.7395 322.878 15.0197 322.178 15.4396C321.058 16.0002 319.798 15.7199 318.818 15.0197L312.518 9.97979L307.478 14.8802L312.518 21.3206C313.358 22.301 313.497 23.5607 312.938 24.6808C312.517 25.5206 312.238 26.2208 311.957 27.0606C311.537 28.1798 310.557 29.0206 309.297 29.1602L301.317 30.0001L301.177 36.9999L309.297 37.9804C310.557 38.12 311.537 38.9599 311.957 40.08L311.957 40.0801C312.238 40.9199 312.518 41.7597 312.938 42.4598C313.358 43.5798 313.218 44.8395 312.518 45.82L307.478 52.1197L312.378 57.1596L318.819 52.1197C319.378 51.6997 320.078 51.4195 320.779 51.4195C321.339 51.4195 321.759 51.4195 322.179 51.6997C323.019 52.1206 323.719 52.3999 324.559 52.6802C325.678 53.1002 326.519 54.0806 326.658 55.3404L327.498 63.3208L334.498 63.4604L335.479 55.3405C335.618 54.0807 336.458 53.1003 337.578 52.6803L337.578 52.6802C338.418 52.4 339.258 52.1198 339.958 51.6999C341.078 51.1393 342.338 51.28 343.318 52.1198L349.478 57.1597L354.518 52.2593L349.478 45.8189C348.638 44.8385 348.499 43.5788 349.058 42.4587C349.479 41.6189 349.759 40.9187 350.039 40.0789ZM317.279 33.6403C317.279 26.0799 323.439 19.7803 331.139 19.7803C338.839 19.7803 344.999 26.0809 344.999 33.6403C344.999 41.2007 338.699 47.5003 331.139 47.5003C323.579 47.5003 317.279 41.1997 317.279 33.6403ZM321.899 33.6403C321.899 38.821 326.099 42.8804 331.139 42.8804C336.179 42.8804 340.38 38.82 340.38 33.6403C340.38 28.4596 336.319 24.4002 331.139 24.4002C325.959 24.4002 321.899 28.4606 321.899 33.6403Z" fill="url(#paint1_linear_1_428)"/>
<path d="M361.239 41.8997L361.343 42.8944L361.349 42.8936L361.239 41.8997ZM354.52 42.5999L354.417 41.6053L353.87 41.6623L353.625 42.154L354.52 42.5999ZM354.1 43.5804L353.205 43.1344L352.917 43.7141L353.327 44.2148L354.1 43.5804ZM358.581 49.0403L359.362 48.4154L359.354 48.406L358.581 49.0403ZM359.561 51.7005L358.571 51.8415L358.694 52.7005H359.561V51.7005ZM372.441 53.2406L371.48 53.5154L371.489 53.548L371.5 53.5798L372.441 53.2406ZM375.521 61.7804L374.58 62.1197L374.819 62.7804H375.521V61.7804ZM381.12 61.7804V62.7804H381.879L382.083 62.0501L381.12 61.7804ZM381.12 66.5398L382.083 66.2701L381.879 65.5398H381.12V66.5398ZM371.6 64.9998L372.562 64.725L372.552 64.6924L372.541 64.6606L371.6 64.9998ZM368.52 56.46L369.461 56.1207L369.223 55.46H368.52V56.46ZM357.32 56.46V55.46H356.906L356.613 55.7528L357.32 56.46ZM354.24 59.5399L353.533 58.8328L353.24 59.1257V59.5399H354.24ZM354.24 70.74H353.24V71.4424L353.901 71.6807L354.24 70.74ZM362.78 73.8199L362.441 74.7606L362.452 74.7647L362.463 74.7685L362.78 73.8199ZM364.32 83.3402H363.32V84.0987L364.05 84.3032L364.32 83.3402ZM359.561 83.3402L359.83 84.3032L360.561 84.0986V83.3402H359.561ZM359.561 77.7408H360.561V77.0385L359.9 76.8002L359.561 77.7408ZM351.021 74.6609L351.36 73.7202L351.349 73.7161L351.337 73.7123L351.021 74.6609ZM349.481 61.7811H350.481V60.7811H349.481V61.7811ZM346.82 60.8007L347.461 60.0326L347.455 60.0276L346.82 60.8007ZM341.361 56.3202L341.995 55.5472L341.494 55.1364L340.915 55.4252L341.361 56.3202ZM340.38 56.7402L339.934 55.8451L339.44 56.0913L339.385 56.6406L340.38 56.7402ZM339.68 63.74L340.674 63.8507L340.675 63.8396L339.68 63.74ZM333.659 68.0797V67.0797H332.659L332.659 68.0798L333.659 68.0797ZM333.661 83.3392L332.661 83.3394L332.661 84.0977L333.392 84.3022L333.661 83.3392ZM328.902 83.3392L329.172 84.3022L329.902 84.0976V83.3392H328.902ZM328.902 68.0797H329.902V67.0797H328.902V68.0797ZM322.881 63.74L321.886 63.8396L321.888 63.8506L322.881 63.74ZM322.181 56.7402L323.176 56.6406L323.121 56.0913L322.627 55.8451L322.181 56.7402ZM321.691 56.5302L321.319 57.4586L321.319 57.4586L321.691 56.5302ZM321.201 56.3202L321.647 55.4252L321.067 55.1363L320.566 55.5472L321.201 56.3202ZM315.741 60.8007L316.366 61.5814L316.375 61.5737L315.741 60.8007ZM313.081 61.7811L312.94 60.7911L312.081 60.9135V61.7811H313.081ZM311.541 74.6609L311.266 73.6994L311.233 73.7087L311.201 73.7202L311.541 74.6609ZM303.001 77.7408L302.661 76.8002L302.001 77.0385V77.7408H303.001ZM303.001 83.3402H302.001V84.0987L302.731 84.3032L303.001 83.3402ZM298.241 83.3402L298.511 84.3032L299.241 84.0986V83.3402H298.241ZM299.781 73.8199L300.056 74.7814L300.089 74.7721L300.121 74.7606L299.781 73.8199ZM308.321 70.74L308.66 71.6807L309.321 71.4424V70.74H308.321ZM308.321 59.5399H309.321V59.1257L309.028 58.8328L308.321 59.5399ZM305.241 56.46L305.948 55.7528L305.655 55.46H305.241V56.46ZM294.041 56.46V55.46H293.339L293.1 56.1207L294.041 56.46ZM290.961 64.9998L290.021 64.6606L290.016 64.6719L290.013 64.6833L290.961 64.9998ZM281.441 66.5398V65.5398H280.682L280.478 66.2701L281.441 66.5398ZM281.441 61.7804L280.478 62.0502L280.683 62.7804H281.441V61.7804ZM287.04 61.7804V62.7804H287.743L287.981 62.1197L287.04 61.7804ZM290.12 53.2406L291.061 53.5798L291.065 53.5685L291.069 53.5571L290.12 53.2406ZM303 51.7005V52.7005H304V51.7005H303ZM303.98 49.0403L303.224 48.3862L303.218 48.393L303.212 48.4L303.98 49.0403ZM308.46 43.8606L309.216 44.5148L309.652 44.0109L309.355 43.4147L308.46 43.8606ZM308.25 43.3704L309.178 42.9988L309.178 42.9988L308.25 43.3704ZM308.04 42.8802L308.935 42.4342L308.689 41.9401L308.14 41.8852L308.04 42.8802ZM301.04 42.18L300.929 43.1739L300.941 43.175L301.04 42.18ZM296.7 36.1595H297.7V35.1595H296.7V36.1595ZM281.441 36.1595V35.1595H280.683L280.478 35.8898L281.441 36.1595ZM281.441 31.4L280.478 31.6698L280.683 32.3999L281.441 32.4L281.441 31.4ZM296.7 31.402L296.7 32.402L297.7 32.4021V31.402H296.7ZM301.04 25.3815L300.941 24.3864L300.93 24.3876L301.04 25.3815ZM308.04 24.6813L308.14 25.6763L308.689 25.6214L308.935 25.1273L308.04 24.6813ZM308.25 24.191L307.322 23.8194L307.322 23.8194L308.25 24.191ZM308.46 23.7008L309.355 24.1468L309.644 23.5671L309.233 23.0665L308.46 23.7008ZM303.979 18.2409L303.199 18.8659L303.206 18.8753L303.979 18.2409ZM302.999 15.5807L303.989 15.4397L303.867 14.5807H302.999V15.5807ZM290.119 14.0407L291.081 13.7658L291.071 13.7333L291.06 13.7014L290.119 14.0407ZM287.039 5.50081L287.98 5.16155L287.742 4.50081H287.039V5.50081ZM281.44 5.50081V4.50081H280.681L280.477 5.23112L281.44 5.50081ZM281.44 0.74139L280.477 1.01114L280.682 1.74139H281.44V0.74139ZM290.96 2.28141L289.999 2.55626L290.008 2.58882L290.02 2.62068L290.96 2.28141ZM294.04 10.8213L293.099 11.1605L293.338 11.8213H294.04V10.8213ZM305.24 10.8213V11.8213H305.654L305.947 11.5284L305.24 10.8213ZM308.32 7.74133L309.027 8.44844L309.32 8.15554V7.74133H308.32ZM308.32 -3.45874H309.32V-4.16114L308.659 -4.39944L308.32 -3.45874ZM299.78 -6.5387L300.12 -7.47939L300.108 -7.48347L300.097 -7.48727L299.78 -6.5387ZM298.24 -16.059H299.24V-16.8174L298.51 -17.022L298.24 -16.059ZM303 -16.059L302.73 -17.0219L302 -16.8174V-16.059H303ZM303 -10.4596H302V-9.75722L302.66 -9.51892L303 -10.4596ZM311.54 -7.37966L311.2 -6.43896L311.212 -6.43489L311.223 -6.43108L311.54 -7.37966ZM313.08 5.50011H312.08V6.50011H313.08V5.50011ZM315.74 6.48057L316.394 5.72419L316.387 5.71828L316.38 5.7125L315.74 6.48057ZM320.919 10.96L320.265 11.7164L320.769 12.1521L321.365 11.855L320.919 10.96ZM321.41 10.75L321.781 11.6784L321.781 11.6784L321.41 10.75ZM321.9 10.5401L322.346 11.4351L322.84 11.1889L322.895 10.6396L321.9 10.5401ZM322.6 3.5402L321.606 3.42954L321.605 3.44066L322.6 3.5402ZM328.621 -0.799488V0.200512H329.621V-0.799488H328.621ZM328.621 -16.059H329.621V-16.8174L328.89 -17.0219L328.621 -16.059ZM333.38 -16.059L333.11 -17.0219L332.38 -16.8174L332.38 -16.0591L333.38 -16.059ZM333.379 -1.07973L332.379 -1.0798L332.379 -0.0797348H333.379V-1.07973ZM339.4 3.25995L340.395 3.16041L340.394 3.14939L339.4 3.25995ZM340.1 10.2598L339.105 10.3594L339.16 10.9087L339.654 11.1549L340.1 10.2598ZM341.08 10.6798L340.634 11.5748L341.214 11.8636L341.715 11.4528L341.08 10.6798ZM346.54 6.19933L345.915 5.41857L345.906 5.42629L346.54 6.19933ZM349.2 5.21887L349.341 6.20888L350.2 6.08653V5.21887H349.2ZM350.74 -7.6609L351.015 -6.69942L351.048 -6.70872L351.08 -6.72021L350.74 -7.6609ZM359.28 -10.7409L359.62 -9.80016L360.28 -10.0385V-10.7409H359.28ZM359.28 -16.3403H360.28V-17.0987L359.55 -17.3032L359.28 -16.3403ZM364.04 -16.3403L363.77 -17.3032L363.04 -17.0986V-16.3403H364.04ZM362.5 -6.81994L362.225 -7.78143L362.192 -7.77212L362.16 -7.76063L362.5 -6.81994ZM353.96 -3.73999L353.621 -4.68068L352.96 -4.44238V-3.73999H353.96ZM353.96 7.46008H352.96V7.8743L353.253 8.16719L353.96 7.46008ZM357.04 10.54L356.333 11.2471L356.626 11.54H357.04V10.54ZM368.24 10.54V11.54H368.942L369.181 10.8793L368.24 10.54ZM371.32 2.00017L372.261 2.33944L372.265 2.32813L372.268 2.31672L371.32 2.00017ZM380.84 0.460144V1.46014H381.599L381.803 0.729836L380.84 0.460144ZM380.84 5.21957L381.803 4.94981L381.598 4.21957H380.84V5.21957ZM375.241 5.21957V4.21957H374.538L374.3 4.8803L375.241 5.21957ZM372.161 13.7594L371.22 13.4202L371.216 13.4315L371.212 13.4429L372.161 13.7594ZM359.281 15.2995V14.2995H358.281V15.2995H359.281ZM358.301 17.9597L357.532 17.3193L357.528 17.3253L358.301 17.9597ZM353.82 23.4196L353.047 22.7852L352.636 23.2859L352.925 23.8656L353.82 23.4196ZM354.03 23.9098L353.102 24.2814L353.102 24.2815L354.03 23.9098ZM354.24 24.4L353.345 24.846L353.591 25.3401L354.14 25.3951L354.24 24.4ZM361.24 25.1002L361.351 24.1063L361.339 24.1052L361.24 25.1002ZM365.58 31.1208H364.58V32.1208L365.58 32.1208L365.58 31.1208ZM380.838 31.1198L380.838 32.1198L381.597 32.1197L381.801 31.3895L380.838 31.1198ZM380.838 35.8792L381.801 35.6095L381.596 34.8792H380.838V35.8792ZM365.579 35.8792V34.8792H364.579V35.8792H365.579ZM352.699 37.9793L352.596 36.9846L352.589 36.9854L352.699 37.9793ZM350.039 40.0789L349.103 39.7275L349.096 39.7448L349.09 39.7623L350.039 40.0789ZM360.818 37.1393L360.921 38.134L361.8 38.043L361.818 37.1593L360.818 37.1393ZM360.957 30.1394L361.957 30.1594L361.975 29.2551L361.077 29.1466L360.957 30.1394ZM352.838 29.159L352.958 28.1661L352.948 28.1651L352.838 29.159ZM350.177 27.0594L349.238 27.4012L349.241 27.4104L350.177 27.0594ZM350.177 27.0593L349.229 27.3758L349.233 27.3885L349.238 27.401L350.177 27.0593ZM349.197 24.6796L348.261 25.0306L348.293 25.1158L348.339 25.1939L349.197 24.6796ZM349.617 21.3194L348.836 20.6947L348.819 20.716L348.803 20.7382L349.617 21.3194ZM354.657 15.0197L355.438 15.6444L355.989 14.9553L355.374 14.3226L354.657 15.0197ZM349.756 9.97979L350.473 9.28268L349.847 8.63884L349.14 9.19226L349.756 9.97979ZM343.316 15.0197L342.7 14.2322L342.682 14.2458L342.665 14.2603L343.316 15.0197ZM339.956 15.4396L339.508 16.3336L339.509 16.3342L339.956 15.4396ZM337.576 14.4592L337.225 15.3954L337.242 15.4019L337.259 15.4077L337.576 14.4592ZM335.476 11.799L334.482 11.9036L334.482 11.9091L335.476 11.799ZM334.637 3.81859L335.631 3.71393L335.539 2.83639L334.656 2.81879L334.637 3.81859ZM327.637 3.67895L327.657 2.67915L327.231 2.67065L326.93 2.97183L327.637 3.67895ZM327.497 3.81859L326.79 3.11148L326.54 3.36182L326.502 3.71393L327.497 3.81859ZM326.657 11.799L327.651 11.9091L327.652 11.9036L326.657 11.799ZM324.558 14.4592L324.874 15.4079L324.891 15.402L324.909 15.3955L324.558 14.4592ZM324.557 14.4592L324.241 13.5105L324.241 13.5106L324.557 14.4592ZM322.178 15.4396L322.625 16.3339L322.659 16.3168L322.692 16.2972L322.178 15.4396ZM318.818 15.0197L318.193 15.8006L318.214 15.8176L318.236 15.8335L318.818 15.0197ZM312.518 9.97979L313.143 9.19894L312.454 8.64763L311.821 9.26283L312.518 9.97979ZM307.478 14.8802L306.781 14.1633L306.137 14.7893L306.69 15.4965L307.478 14.8802ZM312.518 21.3206L311.73 21.9369L311.744 21.9544L311.758 21.9712L312.518 21.3206ZM312.938 24.6808L313.832 25.1289L313.832 25.1277L312.938 24.6808ZM311.957 27.0606L312.894 27.412L312.9 27.3947L312.906 27.3772L311.957 27.0606ZM309.297 29.1602L309.402 30.1547L309.407 30.1541L309.297 29.1602ZM301.317 30.0001L301.212 29.0055L300.335 29.0979L300.317 29.9801L301.317 30.0001ZM301.177 36.9999L300.177 36.98L300.159 37.8843L301.057 37.9927L301.177 36.9999ZM309.297 37.9804L309.177 38.9732L309.187 38.9743L309.297 37.9804ZM311.957 40.08L312.899 39.7436L312.896 39.7363L312.894 39.7289L311.957 40.08ZM311.957 40.0801L312.906 39.7636L312.903 39.7536L312.899 39.7438L311.957 40.0801ZM312.938 42.4598L313.874 42.1087L313.842 42.0235L313.795 41.9455L312.938 42.4598ZM312.518 45.82L313.299 46.4447L313.316 46.4234L313.332 46.4012L312.518 45.82ZM307.478 52.1197L306.697 51.4949L306.146 52.1841L306.761 52.8168L307.478 52.1197ZM312.378 57.1596L311.661 57.8567L312.287 58.5005L312.995 57.9471L312.378 57.1596ZM318.819 52.1197L318.218 51.3198L318.21 51.3259L318.202 51.3321L318.819 52.1197ZM322.179 51.6997L321.624 52.5315L321.675 52.5659L321.731 52.5937L322.179 51.6997ZM324.559 52.6802L324.91 51.744L324.893 51.7375L324.875 51.7316L324.559 52.6802ZM326.658 55.3404L327.653 55.2357L327.652 55.2302L326.658 55.3404ZM327.498 63.3208L326.504 63.4254L326.596 64.303L327.478 64.3206L327.498 63.3208ZM334.498 63.4604L334.478 64.4602L335.382 64.4783L335.491 63.5803L334.498 63.4604ZM335.479 55.3405L336.471 55.4604L336.472 55.4507L335.479 55.3405ZM337.578 52.6803L337.242 51.7386L337.234 51.7412L337.227 51.744L337.578 52.6803ZM337.578 52.6802L337.262 51.7317L337.252 51.735L337.242 51.7385L337.578 52.6802ZM339.958 51.6999L339.51 50.8056L339.476 50.8227L339.444 50.8423L339.958 51.6999ZM343.318 52.1198L342.668 52.8793L342.676 52.8866L342.685 52.8938L343.318 52.1198ZM349.478 57.1597L348.845 57.9337L349.536 58.4987L350.175 57.8767L349.478 57.1597ZM354.518 52.2593L355.215 52.9763L355.859 52.3502L355.306 51.643L354.518 52.2593ZM349.478 45.8189L350.266 45.2026L350.252 45.1852L350.238 45.1683L349.478 45.8189ZM349.058 42.4587L348.164 42.0107L348.164 42.0118L349.058 42.4587ZM361.349 42.8936C364.39 42.5554 366.579 40.0144 366.579 36.9993H364.579C364.579 39.0254 363.127 40.6836 361.128 40.9059L361.349 42.8936ZM354.624 43.5946L361.343 42.8943L361.135 40.9051L354.417 41.6053L354.624 43.5946ZM355.239 43.4618C355.313 43.2753 355.367 43.142 355.415 43.0459L353.625 42.154C353.533 42.3382 353.447 42.555 353.382 42.7186L355.239 43.4618ZM354.995 44.0264C355.087 43.8421 355.173 43.6254 355.239 43.4618L353.382 42.7186C353.307 42.9051 353.253 43.0384 353.205 43.1344L354.995 44.0264ZM359.354 48.406L354.873 42.946L353.327 44.2148L357.808 49.6747L359.354 48.406ZM360.551 51.5595C360.403 50.5182 360.09 49.325 359.362 48.4154L357.8 49.6652C358.193 50.1562 358.44 50.9219 358.571 51.8415L360.551 51.5595ZM370.201 50.7005H359.561V52.7005H370.201V50.7005ZM373.403 52.9657C372.97 51.4513 371.509 50.7005 370.201 50.7005V52.7005C370.854 52.7005 371.352 53.0688 371.48 53.5154L373.403 52.9657ZM376.462 61.4412L373.382 52.9013L371.5 53.5798L374.58 62.1197L376.462 61.4412ZM381.12 60.7804H375.521V62.7804H381.12V60.7804ZM389.24 54.6203C384.852 54.6203 381.253 57.5988 380.157 61.5107L382.083 62.0501C382.948 58.9621 385.789 56.6203 389.24 56.6203V54.6203ZM398.78 64.1601C398.78 58.8482 394.552 54.6203 389.24 54.6203V56.6203C393.448 56.6203 396.78 59.9528 396.78 64.1601H398.78ZM389.24 73.7C394.552 73.7 398.78 69.4721 398.78 64.1601H396.78C396.78 68.3675 393.448 71.7 389.24 71.7V73.7ZM380.157 66.8096C381.256 70.7311 385.001 73.7 389.24 73.7V71.7C385.919 71.7 382.946 69.3485 382.083 66.2701L380.157 66.8096ZM373.84 67.5398H381.12V65.5398H373.84V67.5398ZM370.639 65.2747C371.071 66.789 372.533 67.5398 373.84 67.5398V65.5398C373.187 65.5398 372.689 65.1715 372.562 64.725L370.639 65.2747ZM367.579 56.7992L370.659 65.3391L372.541 64.6606L369.461 56.1207L367.579 56.7992ZM357.32 57.46H368.52V55.46H357.32V57.46ZM354.947 60.247L358.027 57.1671L356.613 55.7528L353.533 58.8328L354.947 60.247ZM355.24 70.74V59.5399H353.24V70.74H355.24ZM363.119 72.8792L354.579 69.7993L353.901 71.6807L362.441 74.7606L363.119 72.8792ZM365.32 76.0601C365.32 75.3378 365.065 74.6519 364.686 74.1063C364.309 73.5641 363.76 73.0927 363.097 72.8714L362.463 74.7685C362.64 74.8274 362.861 74.9858 363.044 75.2486C363.224 75.5079 363.32 75.802 363.32 76.0601H365.32ZM365.32 83.3402V76.0601H363.32V83.3402H365.32ZM371.48 91.4601C371.48 87.0715 368.502 83.4729 364.59 82.3773L364.05 84.3032C367.138 85.1681 369.48 88.0089 369.48 91.4601H371.48ZM361.94 101C367.252 101 371.48 96.7721 371.48 91.4601H369.48C369.48 95.6675 366.148 99 361.94 99V101ZM352.4 91.4601C352.4 96.7721 356.628 101 361.94 101V99C357.733 99 354.4 95.6675 354.4 91.4601H352.4ZM359.291 82.3773C355.369 83.4759 352.4 87.221 352.4 91.4601H354.4C354.4 88.1389 356.752 85.1656 359.83 84.3032L359.291 82.3773ZM358.561 77.7408V83.3402H360.561V77.7408H358.561ZM350.681 75.6016L359.221 78.6815L359.9 76.8002L351.36 73.7202L350.681 75.6016ZM348.481 72.4207C348.481 73.143 348.735 73.8289 349.115 74.3745C349.492 74.9167 350.041 75.3881 350.704 75.6095L351.337 73.7123C351.161 73.6534 350.939 73.495 350.757 73.2322C350.576 72.9729 350.481 72.6788 350.481 72.4207H348.481ZM348.481 61.7811V72.4207H350.481V61.7811H348.481ZM346.18 61.5687C347.202 62.4204 348.269 62.7811 349.481 62.7811V60.7811C348.732 60.7811 348.119 60.5813 347.461 60.0326L346.18 61.5687ZM340.726 57.0933L346.186 61.5737L347.455 60.0276L341.995 55.5472L340.726 57.0933ZM341.242 57.4586C341.406 57.3931 341.622 57.3071 341.807 57.2153L340.915 55.4252C340.819 55.473 340.685 55.5271 340.499 55.6018L341.242 57.4586ZM340.826 57.6352C340.922 57.5873 341.055 57.5332 341.242 57.4586L340.499 55.6018C340.335 55.6673 340.118 55.7533 339.934 55.8451L340.826 57.6352ZM340.675 63.8396L341.375 56.8397L339.385 56.6406L338.685 63.6405L340.675 63.8396ZM334.779 69.0797C337.793 69.0797 340.335 66.8912 340.674 63.8507L338.686 63.6294C338.464 65.6276 336.805 67.0797 334.779 67.0797V69.0797ZM333.659 69.0797H334.779V67.0797H333.659V69.0797ZM334.661 83.3391L334.659 68.0796L332.659 68.0798L332.661 83.3394L334.661 83.3391ZM340.821 91.4591C340.821 87.0704 337.843 83.4719 333.931 82.3763L333.392 84.3022C336.48 85.167 338.821 88.0079 338.821 91.4591H340.821ZM331.282 100.999C336.594 100.999 340.821 96.771 340.821 91.4591H338.821C338.821 95.6665 335.489 98.999 331.282 98.999V100.999ZM321.742 91.4591C321.742 96.771 325.97 100.999 331.282 100.999V98.999C327.074 98.999 323.742 95.6665 323.742 91.4591H321.742ZM328.632 82.3763C324.711 83.4748 321.742 87.22 321.742 91.4591H323.742C323.742 88.1378 326.093 85.1645 329.172 84.3022L328.632 82.3763ZM327.902 68.0797V83.3392H329.902V68.0797H327.902ZM327.782 69.0797H328.902V67.0797H327.782V69.0797ZM321.888 63.8506C322.226 66.8912 324.767 69.0797 327.782 69.0797V67.0797C325.756 67.0797 324.098 65.6278 323.875 63.6295L321.888 63.8506ZM321.186 56.8397L321.886 63.8396L323.876 63.6405L323.176 56.6406L321.186 56.8397ZM321.319 57.4586C321.506 57.5332 321.639 57.5873 321.735 57.6352L322.627 55.8451C322.443 55.7533 322.226 55.6673 322.063 55.6018L321.319 57.4586ZM320.755 57.2153C320.939 57.3071 321.156 57.3931 321.319 57.4586L322.063 55.6018C321.876 55.5271 321.743 55.473 321.647 55.4252L320.755 57.2153ZM316.375 61.5737L321.835 57.0933L320.566 55.5472L315.106 60.0276L316.375 61.5737ZM313.222 62.7711C314.263 62.6228 315.456 62.3094 316.366 61.5814L315.116 60.02C314.625 60.413 313.859 60.6601 312.94 60.7911L313.222 62.7711ZM314.081 72.4207V61.7811H312.081V72.4207H314.081ZM311.815 75.6224C313.33 75.1895 314.081 73.7284 314.081 72.4207H312.081C312.081 73.0739 311.712 73.5718 311.266 73.6994L311.815 75.6224ZM303.34 78.6815L311.88 75.6016L311.201 73.7202L302.661 76.8002L303.34 78.6815ZM304.001 83.3402V77.7408H302.001V83.3402H304.001ZM310.161 91.4601C310.161 87.0715 307.182 83.4729 303.27 82.3773L302.731 84.3032C305.819 85.1681 308.161 88.0089 308.161 91.4601H310.161ZM300.621 101C305.933 101 310.161 96.7721 310.161 91.4601H308.161C308.161 95.6675 304.828 99 300.621 99V101ZM291.081 91.4601C291.081 96.7721 295.309 101 300.621 101V99C296.414 99 293.081 95.6675 293.081 91.4601H291.081ZM297.972 82.3773C294.05 83.4759 291.081 87.221 291.081 91.4601H293.081C293.081 88.1389 295.433 85.1656 298.511 84.3032L297.972 82.3773ZM297.241 76.0601V83.3402H299.241V76.0601H297.241ZM299.506 72.8584C297.992 73.2913 297.241 74.7524 297.241 76.0601H299.241C299.241 75.4069 299.61 74.9091 300.056 74.7814L299.506 72.8584ZM307.982 69.7993L299.442 72.8792L300.121 74.7606L308.66 71.6807L307.982 69.7993ZM307.321 59.5399V70.74H309.321V59.5399H307.321ZM304.534 57.1671L307.614 60.247L309.028 58.8328L305.948 55.7528L304.534 57.1671ZM294.041 57.46H305.241V55.46H294.041V57.46ZM291.902 65.3391L294.982 56.7992L293.1 56.1207L290.021 64.6606L291.902 65.3391ZM288.721 67.5398C289.443 67.5398 290.129 67.2853 290.675 66.9056C291.217 66.5284 291.688 65.9798 291.91 65.3164L290.013 64.6833C289.954 64.8597 289.795 65.0811 289.533 65.2639C289.273 65.4443 288.979 65.5398 288.721 65.5398V67.5398ZM281.441 67.5398H288.721V65.5398H281.441V67.5398ZM273.321 73.7C277.71 73.7 281.308 70.7214 282.404 66.8095L280.478 66.2701C279.613 69.3581 276.772 71.7 273.321 71.7V73.7ZM263.781 64.1601C263.781 69.4721 268.009 73.7 273.321 73.7V71.7C269.114 71.7 265.781 68.3675 265.781 64.1601H263.781ZM273.321 54.6203C268.009 54.6203 263.781 58.8482 263.781 64.1601H265.781C265.781 59.9527 269.114 56.6203 273.321 56.6203V54.6203ZM282.404 61.5107C281.305 57.5892 277.56 54.6203 273.321 54.6203V56.6203C276.642 56.6203 279.616 58.9717 280.478 62.0502L282.404 61.5107ZM287.04 60.7804H281.441V62.7804H287.04V60.7804ZM289.18 52.9013L286.1 61.4412L287.981 62.1197L291.061 53.5798L289.18 52.9013ZM292.36 50.7005C291.638 50.7005 290.952 50.9551 290.407 51.3348C289.864 51.712 289.393 52.2606 289.172 52.924L291.069 53.5571C291.128 53.3807 291.286 53.1593 291.549 52.9765C291.808 52.7961 292.102 52.7005 292.36 52.7005V50.7005ZM303 50.7005H292.36V52.7005H303V50.7005ZM303.212 48.4C302.361 49.4214 302 50.4885 302 51.7005H304C304 50.9515 304.2 50.3389 304.749 49.6807L303.212 48.4ZM307.704 43.2065L303.224 48.3862L304.737 49.6945L309.216 44.5148L307.704 43.2065ZM307.322 43.742C307.387 43.9056 307.473 44.1224 307.565 44.3066L309.355 43.4147C309.307 43.3186 309.253 43.1853 309.178 42.9988L307.322 43.742ZM307.145 43.3262C307.193 43.4222 307.247 43.5555 307.322 43.742L309.178 42.9988C309.113 42.8352 309.027 42.6184 308.935 42.4342L307.145 43.3262ZM300.941 43.175L307.94 43.8752L308.14 41.8852L301.14 41.185L300.941 43.175ZM295.7 37.2796C295.7 40.2935 297.889 42.8354 300.929 43.1739L301.151 41.1861C299.152 40.9637 297.7 39.3046 297.7 37.2796H295.7ZM295.7 36.1595V37.2796H297.7V36.1595H295.7ZM281.441 37.1595H296.7V35.1595H281.441V37.1595ZM273.321 43.3196C277.71 43.3196 281.308 40.3411 282.404 36.4292L280.478 35.8898C279.613 38.9778 276.772 41.3196 273.321 41.3196V43.3196ZM263.781 33.7798C263.781 39.0917 268.009 43.3196 273.321 43.3196V41.3196C269.114 41.3196 265.781 37.9872 265.781 33.7798H263.781ZM273.321 24.2399C268.009 24.2399 263.781 28.4678 263.781 33.7798H265.781C265.781 29.5724 269.114 26.2399 273.321 26.2399V24.2399ZM282.404 31.1303C281.305 27.2088 277.56 24.2399 273.321 24.2399V26.2399C276.642 26.2399 279.616 28.5914 280.478 31.6698L282.404 31.1303ZM296.701 30.402L281.441 30.4L281.441 32.4L296.7 32.402L296.701 30.402ZM295.7 30.2819V31.402H297.7V30.2819H295.7ZM300.93 24.3876C297.889 24.7259 295.7 27.2668 295.7 30.2819H297.7C297.7 28.2558 299.152 26.5976 301.151 26.3753L300.93 24.3876ZM307.94 23.6862L300.941 24.3864L301.14 26.3765L308.14 25.6763L307.94 23.6862ZM307.322 23.8194C307.247 24.006 307.193 24.1393 307.145 24.2353L308.935 25.1273C309.027 24.943 309.113 24.7262 309.178 24.5626L307.322 23.8194ZM307.565 23.2549C307.473 23.4391 307.387 23.6559 307.322 23.8194L309.178 24.5626C309.253 24.3761 309.307 24.2428 309.355 24.1468L307.565 23.2549ZM303.206 18.8753L307.687 24.3352L309.233 23.0665L304.753 17.6066L303.206 18.8753ZM302.009 15.7217C302.157 16.763 302.471 17.9563 303.199 18.8658L304.76 17.616C304.367 17.125 304.12 16.3593 303.989 15.4397L302.009 15.7217ZM292.359 16.5807H302.999V14.5807H292.359V16.5807ZM289.158 14.3155C289.591 15.8299 291.052 16.5807 292.359 16.5807V14.5807C291.706 14.5807 291.208 14.2124 291.081 13.7658L289.158 14.3155ZM286.099 5.84008L289.179 14.3799L291.06 13.7014L287.98 5.16155L286.099 5.84008ZM281.44 6.50081H287.039V4.50081H281.44V6.50081ZM273.32 12.661C277.709 12.661 281.307 9.6824 282.403 5.77051L280.477 5.23112C279.612 8.31911 276.771 10.661 273.32 10.661V12.661ZM263.78 3.1211C263.78 8.43306 268.008 12.661 273.32 12.661V10.661C269.113 10.661 265.78 7.32849 265.78 3.1211H263.78ZM273.32 -6.41876C268.008 -6.41876 263.78 -2.19086 263.78 3.1211H265.78C265.78 -1.08629 269.113 -4.41876 273.32 -4.41876V-6.41876ZM282.403 0.471638C281.304 -3.44983 277.559 -6.41876 273.32 -6.41876V-4.41876C276.641 -4.41876 279.615 -2.06728 280.477 1.01114L282.403 0.471638ZM288.72 -0.25861H281.44V1.74139H288.72V-0.25861ZM291.922 2.00657C291.489 0.492214 290.028 -0.25861 288.72 -0.25861V1.74139C289.373 1.74139 289.871 2.1097 289.999 2.55626L291.922 2.00657ZM294.981 10.482L291.901 1.94215L290.02 2.62068L293.099 11.1605L294.981 10.482ZM305.24 9.82128H294.04V11.8213H305.24V9.82128ZM307.613 7.03422L304.533 10.1142L305.947 11.5284L309.027 8.44844L307.613 7.03422ZM307.32 -3.45874V7.74133H309.32V-3.45874H307.32ZM299.441 -5.59801L307.981 -2.51805L308.659 -4.39944L300.12 -7.47939L299.441 -5.59801ZM297.24 -8.77888C297.24 -8.05656 297.495 -7.3707 297.875 -6.82508C298.252 -6.28291 298.8 -5.81151 299.464 -5.59012L300.097 -7.48727C299.92 -7.54615 299.699 -7.70462 299.516 -7.96736C299.336 -8.22664 299.24 -8.52075 299.24 -8.77888H297.24ZM297.24 -16.059V-8.77888H299.24V-16.059H297.24ZM291.08 -24.1789C291.08 -19.7902 294.059 -16.1917 297.971 -15.0961L298.51 -17.022C295.422 -17.8868 293.08 -20.7277 293.08 -24.1789H291.08ZM300.62 -33.7188C295.308 -33.7188 291.08 -29.4908 291.08 -24.1789H293.08C293.08 -28.3863 296.413 -31.7188 300.62 -31.7188V-33.7188ZM310.16 -24.1789C310.16 -29.4908 305.932 -33.7188 300.62 -33.7188V-31.7188C304.827 -31.7188 308.16 -28.3863 308.16 -24.1789H310.16ZM303.269 -15.0961C307.191 -16.1946 310.16 -19.9398 310.16 -24.1789H308.16C308.16 -20.8576 305.808 -17.8843 302.73 -17.0219L303.269 -15.0961ZM304 -10.4596V-16.059H302V-10.4596H304ZM311.879 -8.32035L303.339 -11.4003L302.66 -9.51892L311.2 -6.43896L311.879 -8.32035ZM314.08 -5.13947C314.08 -5.86179 313.825 -6.54764 313.445 -7.09328C313.068 -7.63544 312.52 -8.10684 311.856 -8.32823L311.223 -6.43108C311.399 -6.3722 311.621 -6.21374 311.804 -5.95099C311.984 -5.69171 312.08 -5.39761 312.08 -5.13947H314.08ZM314.08 5.50011V-5.13947H312.08V5.50011H314.08ZM316.38 5.7125C315.359 4.86087 314.292 4.50011 313.08 4.50011V6.50011C313.829 6.50011 314.441 6.6999 315.099 7.24865L316.38 5.7125ZM321.574 10.2036L316.394 5.72419L315.086 7.23696L320.265 11.7164L321.574 10.2036ZM321.038 9.82164C320.875 9.88711 320.658 9.97315 320.474 10.065L321.365 11.855C321.462 11.8072 321.595 11.7531 321.781 11.6784L321.038 9.82164ZM321.454 9.64503C321.358 9.69289 321.225 9.74699 321.038 9.82165L321.781 11.6784C321.945 11.6129 322.162 11.5269 322.346 11.4351L321.454 9.64503ZM321.605 3.44066L320.905 10.4406L322.895 10.6396L323.595 3.63973L321.605 3.44066ZM327.501 -1.79949C324.487 -1.79949 321.945 0.388985 321.606 3.42955L323.594 3.65084C323.816 1.65259 325.476 0.200512 327.501 0.200512V-1.79949ZM328.621 -1.79949H327.501V0.200512H328.621V-1.79949ZM327.621 -16.059V-0.799488H329.621V-16.059H327.621ZM321.461 -24.1789C321.461 -19.7902 324.439 -16.1917 328.351 -15.096L328.89 -17.0219C325.802 -17.8868 323.461 -20.7276 323.461 -24.1789H321.461ZM331 -33.7187C325.688 -33.7187 321.461 -29.4908 321.461 -24.1789H323.461C323.461 -28.3863 326.793 -31.7187 331 -31.7187V-33.7187ZM340.54 -24.1789C340.54 -29.4908 336.312 -33.7187 331 -33.7187V-31.7187C335.208 -31.7187 338.54 -28.3863 338.54 -24.1789H340.54ZM333.65 -15.0961C337.571 -16.1946 340.54 -19.9397 340.54 -24.1789H338.54C338.54 -20.8576 336.189 -17.8843 333.11 -17.0219L333.65 -15.0961ZM334.379 -1.07967L334.38 -16.0589L332.38 -16.0591L332.379 -1.0798L334.379 -1.07967ZM334.499 -2.07973H333.379V-0.0797348H334.499V-2.07973ZM340.394 3.14939C340.055 0.108765 337.514 -2.07973 334.499 -2.07973V-0.0797348C336.525 -0.0797348 338.183 1.37222 338.406 3.37051L340.394 3.14939ZM341.095 10.1603L340.395 3.16042L338.405 3.35948L339.105 10.3594L341.095 10.1603ZM340.962 9.54141C340.775 9.46675 340.642 9.41264 340.546 9.36479L339.654 11.1549C339.838 11.2467 340.055 11.3327 340.218 11.3982L340.962 9.54141ZM341.526 9.78471C341.342 9.69292 341.125 9.60688 340.962 9.54141L340.218 11.3982C340.405 11.4729 340.538 11.527 340.634 11.5748L341.526 9.78471ZM345.906 5.42629L340.446 9.90672L341.715 11.4528L347.175 6.97236L345.906 5.42629ZM349.059 4.22886C348.018 4.37717 346.825 4.69058 345.915 5.41862L347.165 6.98003C347.656 6.58699 348.422 6.33985 349.341 6.20888L349.059 4.22886ZM348.2 -5.42071V5.21887H350.2V-5.42071H348.2ZM350.466 -8.62239C348.951 -8.1895 348.2 -6.7284 348.2 -5.42071H350.2C350.2 -6.0739 350.569 -6.57176 351.015 -6.69942L350.466 -8.62239ZM358.941 -11.6815L350.401 -8.60159L351.08 -6.72021L359.62 -9.80016L358.941 -11.6815ZM358.28 -16.3403V-10.7409H360.28V-16.3403H358.28ZM352.12 -24.4601C352.12 -20.0715 355.099 -16.4729 359.011 -15.3773L359.55 -17.3032C356.462 -18.1681 354.12 -21.0089 354.12 -24.4601H352.12ZM361.66 -34C356.348 -34 352.12 -29.7721 352.12 -24.4601H354.12C354.12 -28.6675 357.453 -32 361.66 -32V-34ZM371.2 -24.4601C371.2 -29.7721 366.972 -34 361.66 -34V-32C365.867 -32 369.2 -28.6675 369.2 -24.4601H371.2ZM364.309 -15.3773C368.231 -16.4759 371.2 -20.221 371.2 -24.4601H369.2C369.2 -21.1389 366.848 -18.1656 363.77 -17.3032L364.309 -15.3773ZM365.04 -9.06013V-16.3403H363.04V-9.06013H365.04ZM362.775 -5.85845C364.289 -6.29134 365.04 -7.75245 365.04 -9.06013H363.04C363.04 -8.40694 362.671 -7.90908 362.225 -7.78143L362.775 -5.85845ZM354.299 -2.7993L362.839 -5.87925L362.16 -7.76063L353.621 -4.68068L354.299 -2.7993ZM354.96 7.46008V-3.73999H352.96V7.46008H354.96ZM357.747 9.83293L354.667 6.75298L353.253 8.16719L356.333 11.2471L357.747 9.83293ZM368.24 9.54004H357.04V11.54H368.24V9.54004ZM370.379 1.6609L367.299 10.2008L369.181 10.8793L372.261 2.33944L370.379 1.6609ZM373.56 -0.539856C372.838 -0.539856 372.152 -0.285278 371.606 0.094368C371.064 0.471603 370.593 1.02021 370.371 1.68362L372.268 2.31672C372.327 2.14029 372.486 1.91888 372.748 1.73607C373.008 1.55566 373.302 1.46014 373.56 1.46014V-0.539856ZM380.84 -0.539856H373.56V1.46014H380.84V-0.539856ZM388.96 -6.70001C384.571 -6.70001 380.973 -3.72145 379.877 0.190453L381.803 0.729836C382.668 -2.35815 385.509 -4.70001 388.96 -4.70001V-6.70001ZM398.5 2.83986C398.5 -2.47211 394.272 -6.70001 388.96 -6.70001V-4.70001C393.167 -4.70001 396.5 -1.36753 396.5 2.83986H398.5ZM388.96 12.3797C394.272 12.3797 398.5 8.15182 398.5 2.83986H396.5C396.5 7.04724 393.167 10.3797 388.96 10.3797V12.3797ZM379.877 5.48932C380.976 9.41079 384.721 12.3797 388.96 12.3797V10.3797C385.639 10.3797 382.665 8.02824 381.803 4.94981L379.877 5.48932ZM375.241 6.21957H380.84V4.21957H375.241V6.21957ZM373.101 14.0987L376.181 5.55883L374.3 4.8803L371.22 13.4202L373.101 14.0987ZM369.921 16.2995C370.643 16.2995 371.329 16.0449 371.874 15.6652C372.417 15.288 372.888 14.7394 373.109 14.076L371.212 13.4429C371.153 13.6193 370.995 13.8407 370.732 14.0235C370.473 14.2039 370.179 14.2995 369.921 14.2995V16.2995ZM359.281 16.2995H369.921V14.2995H359.281V16.2995ZM359.069 18.6C359.92 17.5786 360.281 16.5115 360.281 15.2995H358.281C358.281 16.0485 358.081 16.6611 357.532 17.3193L359.069 18.6ZM354.593 24.0539L359.074 18.594L357.528 17.3253L353.047 22.7852L354.593 24.0539ZM354.958 23.5383C354.893 23.3746 354.807 23.1578 354.715 22.9736L352.925 23.8656C352.973 23.9616 353.027 24.0949 353.102 24.2814L354.958 23.5383ZM355.135 23.9541C355.087 23.858 355.033 23.7247 354.958 23.5382L353.102 24.2815C353.167 24.445 353.253 24.6618 353.345 24.846L355.135 23.9541ZM361.339 24.1052L354.34 23.405L354.14 25.3951L361.14 26.0953L361.339 24.1052ZM366.58 30.0006C366.58 26.9868 364.391 24.4449 361.351 24.1064L361.129 26.0941C363.128 26.3166 364.58 27.9756 364.58 30.0006H366.58ZM366.58 31.1208V30.0006H364.58V31.1208H366.58ZM380.838 30.1198L365.58 30.1208L365.58 32.1208L380.838 32.1198L380.838 30.1198ZM388.958 23.9596C384.569 23.9596 380.971 26.9382 379.875 30.8501L381.801 31.3895C382.666 28.3015 385.507 25.9596 388.958 25.9596V23.9596ZM398.498 33.4995C398.498 28.1875 394.27 23.9596 388.958 23.9596V25.9596C393.165 25.9596 396.498 29.2921 396.498 33.4995H398.498ZM388.958 43.0394C394.27 43.0394 398.498 38.8115 398.498 33.4995H396.498C396.498 37.7069 393.165 41.0394 388.958 41.0394V43.0394ZM379.875 36.149C380.974 40.0704 384.719 43.0394 388.958 43.0394V41.0394C385.637 41.0394 382.663 38.6879 381.801 35.6095L379.875 36.149ZM365.579 36.8792H380.838V34.8792H365.579V36.8792ZM366.579 36.9993V35.8792H364.579V36.9993H366.579ZM389.098 30.8599C390.646 30.8599 391.879 32.092 391.879 33.6401H393.879C393.879 30.9872 391.75 28.8599 389.098 28.8599V30.8599ZM386.318 33.6401C386.318 32.0928 387.551 30.8599 389.098 30.8599V28.8599C386.447 28.8599 384.318 30.9883 384.318 33.6401H386.318ZM389.098 36.4203C387.551 36.4203 386.318 35.1882 386.318 33.6401H384.318C384.318 36.2931 386.447 38.4203 389.098 38.4203V36.4203ZM391.879 33.6401C391.879 35.1876 390.647 36.4203 389.098 36.4203V38.4203C391.751 38.4203 393.879 36.2918 393.879 33.6401H391.879ZM389.098 0.200413C390.646 0.200413 391.879 1.43253 391.879 2.9806H393.879C393.879 0.327637 391.75 -1.79959 389.098 -1.79959V0.200413ZM386.318 2.9806C386.318 1.43333 387.551 0.200413 389.098 0.200413V-1.79959C386.447 -1.79959 384.318 0.328743 384.318 2.9806H386.318ZM389.098 5.76079C387.551 5.76079 386.318 4.52867 386.318 2.9806H384.318C384.318 5.63356 386.447 7.76079 389.098 7.76079V5.76079ZM391.879 2.9806C391.879 4.52805 390.647 5.76079 389.098 5.76079V7.76079C391.751 7.76079 393.879 5.63229 393.879 2.9806H391.879ZM358.879 -24.3187C358.879 -25.8662 360.111 -27.0989 361.659 -27.0989V-29.0989C359.006 -29.0989 356.879 -26.9704 356.879 -24.3187H358.879ZM361.659 -21.5385C360.227 -21.5385 358.879 -22.7949 358.879 -24.3187H356.879C356.879 -21.6434 359.17 -19.5385 361.659 -19.5385V-21.5385ZM364.439 -24.3187C364.439 -22.7713 363.207 -21.5385 361.659 -21.5385V-19.5385C364.312 -19.5385 366.439 -21.667 366.439 -24.3187H364.439ZM361.659 -27.0989C363.207 -27.0989 364.439 -25.8668 364.439 -24.3187H366.439C366.439 -26.9717 364.311 -29.0989 361.659 -29.0989V-27.0989ZM328.359 -24.3187C328.359 -25.8662 329.592 -27.0989 331.14 -27.0989V-29.0989C328.487 -29.0989 326.359 -26.9704 326.359 -24.3187H328.359ZM331.14 -21.5385C329.592 -21.5385 328.359 -22.7715 328.359 -24.3187H326.359C326.359 -21.6669 328.488 -19.5385 331.14 -19.5385V-21.5385ZM333.92 -24.3187C333.92 -22.7713 332.688 -21.5385 331.14 -21.5385V-19.5385C333.793 -19.5385 335.92 -21.667 335.92 -24.3187H333.92ZM331.14 -27.0989C332.687 -27.0989 333.92 -25.8668 333.92 -24.3187H335.92C335.92 -26.9717 333.791 -29.0989 331.14 -29.0989V-27.0989ZM297.7 -24.3187C297.7 -25.8662 298.932 -27.0989 300.48 -27.0989V-29.0989C297.827 -29.0989 295.7 -26.9704 295.7 -24.3187H297.7ZM300.48 -21.5385C298.933 -21.5385 297.7 -22.7715 297.7 -24.3187H295.7C295.7 -21.6669 297.828 -19.5385 300.48 -19.5385V-21.5385ZM303.26 -24.3187C303.26 -22.7713 302.028 -21.5385 300.48 -21.5385V-19.5385C303.133 -19.5385 305.26 -21.667 305.26 -24.3187H303.26ZM300.48 -27.0989C302.028 -27.0989 303.26 -25.8668 303.26 -24.3187H305.26C305.26 -26.9717 303.132 -29.0989 300.48 -29.0989V-27.0989ZM273.181 5.90079C271.633 5.90079 270.401 4.66867 270.401 3.1206H268.401C268.401 5.77357 270.529 7.90079 273.181 7.90079V5.90079ZM275.961 3.1206C275.961 4.55301 274.705 5.90079 273.181 5.90079V7.90079C275.856 7.90079 277.961 5.61003 277.961 3.1206H275.961ZM273.181 0.340412C274.728 0.340412 275.961 1.57253 275.961 3.1206H277.961C277.961 0.467636 275.833 -1.65959 273.181 -1.65959V0.340412ZM270.401 3.1206C270.401 1.57315 271.633 0.340412 273.181 0.340412V-1.65959C270.528 -1.65959 268.401 0.468914 268.401 3.1206H270.401ZM273.181 36.4203C271.633 36.4203 270.401 35.1882 270.401 33.6401H268.401C268.401 36.2931 270.529 38.4203 273.181 38.4203V36.4203ZM275.961 33.6401C275.961 35.1874 274.728 36.4203 273.181 36.4203V38.4203C275.833 38.4203 277.961 36.292 277.961 33.6401H275.961ZM273.181 30.8599C274.728 30.8599 275.961 32.092 275.961 33.6401H277.961C277.961 30.9872 275.833 28.8599 273.181 28.8599V30.8599ZM270.401 33.6401C270.401 32.0927 271.633 30.8599 273.181 30.8599V28.8599C270.528 28.8599 268.401 30.9884 268.401 33.6401H270.401ZM273.181 67.0798C271.633 67.0798 270.401 65.8477 270.401 64.2996H268.401C268.401 66.9526 270.529 69.0798 273.181 69.0798V67.0798ZM275.961 64.2996C275.961 65.8469 274.728 67.0798 273.181 67.0798V69.0798C275.833 69.0798 277.961 66.9515 277.961 64.2996H275.961ZM273.181 61.5194C274.728 61.5194 275.961 62.7516 275.961 64.2996H277.961C277.961 61.6467 275.833 59.5194 273.181 59.5194V61.5194ZM270.401 64.2996C270.401 62.7522 271.633 61.5194 273.181 61.5194V59.5194C270.528 59.5194 268.401 61.6479 268.401 64.2996H270.401ZM303.4 91.5989C303.4 93.1464 302.168 94.3792 300.62 94.3792V96.3792C303.273 96.3792 305.4 94.2506 305.4 91.5989H303.4ZM300.62 88.8188C302.053 88.8188 303.4 90.0752 303.4 91.5989H305.4C305.4 88.9236 303.11 86.8188 300.62 86.8188V88.8188ZM297.84 91.5989C297.84 90.0515 299.072 88.8188 300.62 88.8188V86.8188C297.967 86.8188 295.84 88.9473 295.84 91.5989H297.84ZM300.62 94.3792C299.073 94.3792 297.84 93.147 297.84 91.5989H295.84C295.84 94.2519 297.968 96.3792 300.62 96.3792V94.3792ZM333.92 91.5989C333.92 93.1464 332.688 94.3792 331.14 94.3792V96.3792C333.793 96.3792 335.92 94.2506 335.92 91.5989H333.92ZM331.14 88.8188C332.687 88.8188 333.92 90.0517 333.92 91.5989H335.92C335.92 88.9471 333.792 86.8188 331.14 86.8188V88.8188ZM328.359 91.5989C328.359 90.0515 329.592 88.8188 331.14 88.8188V86.8188C328.487 86.8188 326.359 88.9473 326.359 91.5989H328.359ZM331.14 94.3792C329.592 94.3792 328.359 93.147 328.359 91.5989H326.359C326.359 94.2519 328.488 96.3792 331.14 96.3792V94.3792ZM364.579 91.5989C364.579 93.1464 363.347 94.3792 361.799 94.3792V96.3792C364.452 96.3792 366.579 94.2506 366.579 91.5989H364.579ZM361.799 88.8188C363.346 88.8188 364.579 90.0517 364.579 91.5989H366.579C366.579 88.9471 364.451 86.8188 361.799 86.8188V88.8188ZM359.019 91.5989C359.019 90.0515 360.251 88.8188 361.799 88.8188V86.8188C359.146 86.8188 357.019 88.9473 357.019 91.5989H359.019ZM361.799 94.3792C360.252 94.3792 359.019 93.147 359.019 91.5989H357.019C357.019 94.2519 359.147 96.3792 361.799 96.3792V94.3792ZM389.098 61.3794C390.646 61.3794 391.879 62.6116 391.879 64.1596H393.879C393.879 61.5067 391.75 59.3794 389.098 59.3794V61.3794ZM386.318 64.1596C386.318 62.7272 387.575 61.3794 389.098 61.3794V59.3794C386.423 59.3794 384.318 61.6702 384.318 64.1596H386.318ZM389.098 66.9398C387.551 66.9398 386.318 65.7077 386.318 64.1596H384.318C384.318 66.8126 386.447 68.9398 389.098 68.9398V66.9398ZM391.879 64.1596C391.879 65.7071 390.647 66.9398 389.098 66.9398V68.9398C391.751 68.9398 393.879 66.8113 393.879 64.1596H391.879ZM352.589 36.9854C350.927 37.1696 349.645 38.2829 349.103 39.7275L350.975 40.4302C351.273 39.6366 351.952 39.0682 352.809 38.9732L352.589 36.9854ZM360.715 36.1446L352.596 36.9846L352.802 38.974L360.921 38.134L360.715 36.1446ZM359.958 30.1195L359.818 37.1194L361.818 37.1593L361.957 30.1594L359.958 30.1195ZM352.718 30.1518L360.838 31.1322L361.077 29.1466L352.958 28.1662L352.718 30.1518ZM349.241 27.4104C349.783 28.8567 351.066 29.9687 352.727 30.1529L352.948 28.1651C352.09 28.07 351.411 27.5023 351.114 26.7084L349.241 27.4104ZM349.238 27.401L349.238 27.4011L351.117 26.7177L351.117 26.7175L349.238 27.401ZM348.339 25.1939C348.692 25.7826 348.94 26.5119 349.229 27.3758L351.126 26.7427C350.854 25.9271 350.541 24.9768 350.055 24.1652L348.339 25.1939ZM348.803 20.7382C347.901 22.002 347.729 23.6134 348.261 25.0306L350.133 24.3285C349.825 23.5057 349.933 22.5976 350.431 21.9005L348.803 20.7382ZM353.876 14.395L348.836 20.6947L350.398 21.9441L355.438 15.6444L353.876 14.395ZM349.039 10.6769L353.94 15.7168L355.374 14.3226L350.473 9.28268L349.039 10.6769ZM343.932 15.8072L350.373 10.7673L349.14 9.19226L342.7 14.2322L343.932 15.8072ZM339.509 16.3342C340.986 17.0721 342.678 16.8827 343.967 15.7791L342.665 14.2603C341.993 14.8364 341.166 14.9263 340.403 14.5451L339.509 16.3342ZM337.259 15.4077C338.061 15.6752 338.716 15.937 339.508 16.3336L340.404 14.5456C339.516 14.1005 338.771 13.8037 337.893 13.5106L337.259 15.4077ZM334.482 11.9091C334.667 13.5713 335.78 14.8532 337.225 15.3954L337.927 13.5229C337.134 13.2251 336.565 12.5461 336.47 11.6888L334.482 11.9091ZM333.642 3.92325L334.482 11.9036L336.471 11.6943L335.631 3.71393L333.642 3.92325ZM327.617 4.67875L334.617 4.81839L334.656 2.81879L327.657 2.67915L327.617 4.67875ZM328.204 4.52571L328.344 4.38606L326.93 2.97183L326.79 3.11148L328.204 4.52571ZM327.652 11.9036L328.492 3.92325L326.502 3.71393L325.663 11.6943L327.652 11.9036ZM324.909 15.3955C326.355 14.8534 327.467 13.571 327.651 11.9091L325.663 11.6888C325.568 12.5466 325.001 13.2252 324.207 13.5228L324.909 15.3955ZM324.874 15.4079L324.874 15.4079L324.241 13.5105L324.241 13.5105L324.874 15.4079ZM322.692 16.2972C323.281 15.9441 324.01 15.6961 324.874 15.4078L324.241 13.5106C323.425 13.7828 322.475 14.0953 321.663 14.582L322.692 16.2972ZM318.236 15.8335C319.421 16.6797 321.079 17.1076 322.625 16.3339L321.73 14.5454C321.036 14.8928 320.175 14.7601 319.399 14.2059L318.236 15.8335ZM311.893 10.7607L318.193 15.8006L319.442 14.2389L313.143 9.19894L311.893 10.7607ZM308.175 15.5972L313.215 10.6968L311.821 9.26283L306.781 14.1633L308.175 15.5972ZM313.305 20.7043L308.266 14.2639L306.69 15.4965L311.73 21.9369L313.305 20.7043ZM313.832 25.1277C314.57 23.6507 314.381 21.9582 313.277 20.67L311.758 21.9712C312.335 22.6438 312.425 23.4707 312.043 24.2339L313.832 25.1277ZM312.906 27.3772C313.173 26.5757 313.435 25.9203 313.832 25.1289L312.044 24.2328C311.599 25.1209 311.302 25.8659 311.009 26.7441L312.906 27.3772ZM309.407 30.1541C311.07 29.9699 312.351 28.8566 312.894 27.412L311.021 26.7093C310.723 27.5029 310.044 28.0713 309.187 28.1663L309.407 30.1541ZM301.421 30.9946L309.402 30.1547L309.193 28.1657L301.212 29.0055L301.421 30.9946ZM302.177 37.0199L302.317 30.02L300.317 29.9801L300.177 36.98L302.177 37.0199ZM309.417 36.9876L301.297 36.0072L301.057 37.9927L309.177 38.9732L309.417 36.9876ZM312.894 39.7289C312.351 38.2827 311.069 37.1707 309.407 36.9865L309.187 38.9743C310.045 39.0694 310.723 39.637 311.021 40.431L312.894 39.7289ZM312.899 39.7438L312.899 39.7436L311.015 40.4163L311.016 40.4165L312.899 39.7438ZM313.795 41.9455C313.442 41.3567 313.194 40.6275 312.906 39.7636L311.009 40.3967C311.281 41.2123 311.593 42.1626 312.08 42.9741L313.795 41.9455ZM313.332 46.4012C314.234 45.1373 314.405 43.526 313.874 42.1087L312.001 42.8109C312.31 43.6337 312.202 44.5417 311.704 45.2388L313.332 46.4012ZM308.259 52.7444L313.299 46.4447L311.737 45.1953L306.697 51.4949L308.259 52.7444ZM313.095 56.4625L308.195 51.4225L306.761 52.8168L311.661 57.8567L313.095 56.4625ZM318.202 51.3321L311.762 56.372L312.995 57.9471L319.435 52.9072L318.202 51.3321ZM320.779 50.4195C319.82 50.4195 318.914 50.7976 318.218 51.3198L319.419 52.9195C319.842 52.6019 320.337 52.4195 320.779 52.4195V50.4195ZM322.734 50.868C322.025 50.3944 321.294 50.4195 320.779 50.4195V52.4195C321.384 52.4195 321.493 52.4445 321.624 52.5315L322.734 50.868ZM324.875 51.7316C324.074 51.4642 323.418 51.2024 322.627 50.8057L321.731 52.5937C322.619 53.0389 323.364 53.3357 324.242 53.6288L324.875 51.7316ZM327.652 55.2302C327.468 53.568 326.355 52.2861 324.91 51.744L324.207 53.6164C325.001 53.9143 325.569 54.5933 325.664 55.4506L327.652 55.2302ZM328.493 63.2161L327.653 55.2357L325.664 55.4451L326.504 63.4254L328.493 63.2161ZM334.518 62.4606L327.518 62.321L327.478 64.3206L334.478 64.4602L334.518 62.4606ZM334.486 55.2207L333.505 63.3405L335.491 63.5803L336.471 55.4604L334.486 55.2207ZM337.227 51.744C335.781 52.2862 334.669 53.5685 334.485 55.2304L336.472 55.4507C336.568 54.5929 337.135 53.9143 337.929 53.6167L337.227 51.744ZM337.242 51.7385L337.242 51.7386L337.914 53.6221L337.915 53.622L337.242 51.7385ZM339.444 50.8423C338.855 51.1954 338.126 51.4434 337.262 51.7317L337.895 53.6288C338.711 53.3566 339.661 53.0442 340.472 52.5575L339.444 50.8423ZM343.969 51.3603C342.681 50.2573 340.988 50.066 339.51 50.8056L340.406 52.5941C341.168 52.2127 341.994 52.3026 342.668 52.8793L343.969 51.3603ZM350.112 56.3857L343.951 51.3458L342.685 52.8938L348.845 57.9337L350.112 56.3857ZM353.821 51.5423L348.781 56.4428L350.175 57.8767L355.215 52.9763L353.821 51.5423ZM348.691 46.4352L353.731 52.8756L355.306 51.643L350.266 45.2026L348.691 46.4352ZM348.164 42.0118C347.426 43.4888 347.615 45.1813 348.719 46.4695L350.238 45.1683C349.662 44.4958 349.572 43.6688 349.953 42.9056L348.164 42.0118ZM349.09 39.7623C348.823 40.5638 348.561 41.2192 348.164 42.0107L349.952 42.9068C350.398 42.0186 350.694 41.2736 350.987 40.3954L349.09 39.7623ZM331.139 18.7803C322.88 18.7803 316.279 25.5342 316.279 33.6403H318.279C318.279 26.6256 323.998 20.7803 331.139 20.7803V18.7803ZM345.999 33.6403C345.999 25.5352 339.398 18.7803 331.139 18.7803V20.7803C338.28 20.7803 343.999 26.6266 343.999 33.6403H345.999ZM331.139 48.5003C339.251 48.5003 345.999 41.753 345.999 33.6403H343.999C343.999 40.6484 338.147 46.5003 331.139 46.5003V48.5003ZM316.279 33.6403C316.279 41.7519 323.027 48.5003 331.139 48.5003V46.5003C324.131 46.5003 318.279 40.6474 318.279 33.6403H316.279ZM331.139 41.8804C326.642 41.8804 322.899 38.2588 322.899 33.6403H320.899C320.899 39.3832 325.557 43.8804 331.139 43.8804V41.8804ZM339.38 33.6403C339.38 38.2579 335.637 41.8804 331.139 41.8804V43.8804C336.722 43.8804 341.38 39.3821 341.38 33.6403H339.38ZM331.139 25.4002C335.767 25.4002 339.38 29.012 339.38 33.6403H341.38C341.38 27.9073 336.871 23.4002 331.139 23.4002V25.4002ZM322.899 33.6403C322.899 29.0128 326.511 25.4002 331.139 25.4002V23.4002C325.406 23.4002 320.899 27.9084 320.899 33.6403H322.899Z" fill="#0A5580" mask="url(#path-6-inside-1_1_428)"/>
</g>
<defs>
<linearGradient id="paint0_linear_1_428" x1="187.5" y1="0" x2="187.5" y2="245" gradientUnits="userSpaceOnUse">
<stop stop-color="#E7F6FF"/>
<stop offset="1" stop-color="#E7F6FF" stop-opacity="0"/>
</linearGradient>
<linearGradient id="paint1_linear_1_428" x1="414.5" y1="-112.5" x2="253" y2="151" gradientUnits="userSpaceOnUse">
<stop stop-color="#B4E4FF"/>
<stop offset="1" stop-color="#0C5681" stop-opacity="0"/>
</linearGradient>
<clipPath id="clip0_1_428">
<rect width="375" height="245" fill="white"/>
</clipPath>
</defs>
</svg>
