<svg width="40" height="40" viewBox="0 0 40 40" fill="none" xmlns="http://www.w3.org/2000/svg">
<path d="M33.44 26.9607C33.44 30.407 30.6462 33.2007 27.2 33.2007C23.7537 33.2007 20.96 30.407 20.96 26.9607C20.96 23.5144 23.7537 20.7207 27.2 20.7207C30.6462 20.7207 33.44 23.5144 33.44 26.9607Z" fill="url(#paint0_linear_1_191)"/>
<path d="M27.9126 20.6394V11.4782C27.9109 10.0259 27.3331 8.63347 26.3062 7.60643C25.2792 6.57955 23.8867 6.00174 22.4345 6H7.82613C7.34189 6.00064 6.87784 6.19319 6.5354 6.5354C6.19319 6.87783 6.00064 7.3419 6 7.82613V32.1733C6.00064 32.6576 6.19319 33.1216 6.5354 33.4641C6.87783 33.8063 7.3419 33.9988 7.82613 33.9995H27.3039C29.6234 33.9999 31.7777 32.7998 32.9983 30.8272C34.2186 28.8548 34.3309 26.3912 33.2949 24.316C32.2591 22.2406 30.2224 20.8495 27.9126 20.6394ZM26.6952 11.4782V12.0868H22.4345C22.0984 12.0864 21.8263 11.8142 21.8259 11.4782V7.21752H22.4345C23.5641 7.2188 24.6472 7.66801 25.4458 8.46684C26.2447 9.26546 26.6939 10.3486 26.6952 11.4782ZM7.82607 32.782C7.49002 32.7816 7.21788 32.5094 7.21745 32.1734V7.82615C7.21787 7.49009 7.49003 7.21796 7.82607 7.21752H20.6084V11.4782C20.609 11.9624 20.8015 12.4265 21.1438 12.7689C21.4862 13.1111 21.9503 13.3037 22.4345 13.3043H26.6951V20.6394C24.8626 20.8046 23.1792 21.7175 22.0411 23.1633C20.903 24.6091 20.4109 26.4598 20.6805 28.2798C20.9503 30.1 21.9579 31.7285 23.4664 32.7821L7.82607 32.782ZM27.3038 32.782C25.8512 32.782 24.4577 32.2048 23.4304 31.1775C22.4029 30.1503 21.8259 28.7568 21.8259 27.3039C21.8259 25.8512 22.4029 24.4577 23.4304 23.4304C24.4577 22.403 25.8512 21.826 27.3038 21.826C28.7567 21.826 30.1502 22.403 31.1775 23.4304C32.2047 24.4577 32.782 25.8512 32.782 27.3039C32.7803 28.7564 32.2026 30.1488 31.1755 31.1756C30.1487 32.2027 28.7563 32.7802 27.3038 32.782ZM31.082 25.6039L27.1255 29.5604C27.0115 29.6746 26.8568 29.7387 26.6952 29.7387C26.5339 29.7387 26.3791 29.6746 26.2649 29.5604L24.4387 27.7342C24.2018 27.4965 24.202 27.1118 24.4394 26.8743C24.6769 26.6369 25.0618 26.6365 25.2996 26.8736L26.6952 28.2692L30.2214 24.7433C30.4591 24.5062 30.844 24.5066 31.0813 24.7439C31.3189 24.9813 31.3191 25.3661 31.082 25.6039Z" fill="#278BC2"/>
<rect x="10" y="26" width="9" height="1" rx="0.5" fill="#278BC2"/>
<rect x="10" y="28.5" width="9" height="1" rx="0.5" fill="#278BC2"/>
<path d="M11.0001 14H13.0001C13.2654 13.9997 13.5193 13.8943 13.7069 13.7069C13.8944 13.5194 13.9997 13.2652 14.0001 13.0001V11.0001C13.9997 10.7348 13.8944 10.4808 13.7069 10.2933C13.5193 10.1059 13.2652 10.0003 13 10H11.0001C10.7349 10.0003 10.4808 10.1059 10.2931 10.2933C10.1057 10.4808 10.0003 10.7348 10 11.0001V13.0001C10.0003 13.2652 10.1057 13.5194 10.2931 13.7069C10.4808 13.8943 10.7349 13.9997 11.0001 14ZM11.0001 11.0001H13.0001L13.0008 13.0001H11.0001L11.0001 11.0001ZM15 11.0002C15 10.724 15.2239 10.5002 15.4999 10.5002H18.5C18.7761 10.5002 19 10.724 19 11.0002C19 11.2762 18.7761 11.5001 18.5 11.5001H15.4999C15.2239 11.5001 15 11.2762 15 11.0002ZM15 13.0002C15 12.724 15.2239 12.5003 15.4999 12.5001H18.5C18.7761 12.5001 19 12.724 19 13.0002C19 13.2762 18.7761 13.5001 18.5 13.5001H15.4999C15.2239 13.5001 15 13.2762 15 13.0002Z" fill="#278BC2"/>
<path d="M11.0001 22H13.0001C13.2654 21.9997 13.5193 21.8943 13.7069 21.7069C13.8944 21.5194 13.9997 21.2652 14.0001 21.0001V19.0001C13.9997 18.7348 13.8944 18.4808 13.7069 18.2933C13.5193 18.1059 13.2652 18.0003 13 18H11.0001C10.7349 18.0003 10.4808 18.1059 10.2931 18.2933C10.1057 18.4808 10.0003 18.7348 10 19.0001V21.0001C10.0003 21.2652 10.1057 21.5194 10.2931 21.7069C10.4808 21.8943 10.7349 21.9997 11.0001 22ZM11.0001 19.0001H13.0001L13.0008 21.0001H11.0001L11.0001 19.0001ZM15 19.0002C15 18.724 15.2239 18.5002 15.4999 18.5002H18.5C18.7761 18.5002 19 18.724 19 19.0002C19 19.2762 18.7761 19.5001 18.5 19.5001H15.4999C15.2239 19.5001 15 19.2762 15 19.0002ZM15 21.0002C15 20.724 15.2239 20.5003 15.4999 20.5001H18.5C18.7761 20.5001 19 20.724 19 21.0002C19 21.2762 18.7761 21.5001 18.5 21.5001H15.4999C15.2239 21.5001 15 21.2762 15 21.0002Z" fill="#278BC2"/>
<defs>
<linearGradient id="paint0_linear_1_191" x1="27.2" y1="20.7207" x2="27.2" y2="33.2007" gradientUnits="userSpaceOnUse">
<stop stop-color="#ABE1FF" stop-opacity="0"/>
<stop offset="1" stop-color="#ABE1FF"/>
</linearGradient>
</defs>
</svg>
