<svg width="38" height="38" viewBox="0 0 38 38" fill="none" xmlns="http://www.w3.org/2000/svg">
<path d="M9.03788 9.16486C9.03788 7.71776 7.86467 6.54456 6.41758 6.54456C4.97049 6.54456 3.79728 7.71776 3.79728 9.16486V13.532H2.05042V15.2789H3.79728V27.507H5.54415V15.2789H7.29102V29.2538H9.03788V15.2789H10.7847V13.532H9.03788V9.16486Z" fill="#278BC2"/>
<path d="M5.02979 9.34573C5.02979 8.5824 5.64859 7.96359 6.41192 7.96359L-nan -nanL6.41192 7.96359C7.17525 7.96359 7.79406 8.5824 7.79406 9.34573V13.5843H5.02979V9.34573Z" fill="url(#paint0_linear_1_471)"/>
<path d="M16.0253 22.7256C16.0253 22.4712 16.2315 22.2649 16.486 22.2649H26.0458C26.3002 22.2649 26.5065 22.4712 26.5065 22.7256V30.5385C26.5065 30.793 26.3002 30.9993 26.0458 30.9993H16.486C16.2315 30.9993 16.0253 30.793 16.0253 30.5385V22.7256Z" fill="#278BC2"/>
<path d="M28.2535 29.714C28.2535 29.4595 28.4598 29.2533 28.7143 29.2533H29.5397C29.7941 29.2533 30.0004 29.4595 30.0004 29.714V30.5394C30.0004 30.7939 29.7941 31.0001 29.5397 31.0001H28.7143C28.4598 31.0001 28.2535 30.7939 28.2535 30.5394V29.714Z" fill="#278BC2"/>
<path d="M12.5316 29.714C12.5316 29.4595 12.7379 29.2533 12.9923 29.2533H13.8178C14.0722 29.2533 14.2785 29.4595 14.2785 29.714V30.5394C14.2785 30.7939 14.0722 31.0001 13.8178 31.0001H12.9923C12.7379 31.0001 12.5316 30.7939 12.5316 30.5394V29.714Z" fill="#278BC2"/>
<path d="M28.2535 26.2198C28.2535 25.9654 28.4598 25.7591 28.7143 25.7591H29.5397C29.7941 25.7591 30.0004 25.9654 30.0004 26.2198V27.0452C30.0004 27.2997 29.7941 27.506 29.5397 27.506H28.7143C28.4598 27.506 28.2535 27.2997 28.2535 27.0452V26.2198Z" fill="#278BC2"/>
<path d="M28.2535 22.7256C28.2535 22.4712 28.4598 22.2649 28.7143 22.2649H29.5397C29.7941 22.2649 30.0004 22.4712 30.0004 22.7256V23.5511C30.0004 23.8055 29.7941 24.0118 29.5397 24.0118H28.7143C28.4598 24.0118 28.2535 23.8055 28.2535 23.5511V22.7256Z" fill="#278BC2"/>
<path d="M12.5316 26.2198C12.5316 25.9654 12.7379 25.7591 12.9923 25.7591H13.8178C14.0722 25.7591 14.2785 25.9654 14.2785 26.2198V27.0452C14.2785 27.2997 14.0722 27.506 13.8178 27.506H12.9923C12.7379 27.506 12.5316 27.2997 12.5316 27.0452V26.2198Z" fill="#278BC2"/>
<path d="M12.5316 22.7256C12.5316 22.4712 12.7379 22.2649 12.9923 22.2649H13.8178C14.0722 22.2649 14.2785 22.4712 14.2785 22.7256V23.5511C14.2785 23.8055 14.0722 24.0118 13.8178 24.0118H12.9923C12.7379 24.0118 12.5316 23.8055 12.5316 23.5511V22.7256Z" fill="#278BC2"/>
<path d="M16.9727 8.89525C15.746 8.90067 14.7472 7.91062 14.7418 6.68391L-nan -nanL14.7418 6.68391C14.7364 5.4572 15.7264 4.45837 16.9531 4.45295L28.9643 4.39988L28.9839 8.84217L16.9727 8.89525Z" fill="url(#paint1_linear_1_471)"/>
<path d="M25.9788 17.5281C27.2055 17.5336 28.2043 16.5435 28.2098 15.3168L-nan -nanL28.2098 15.3168C28.2152 14.0901 27.2251 13.0913 25.9984 13.0859L13.9873 13.0328L13.9676 17.4751L25.9788 17.5281Z" fill="url(#paint2_linear_1_471)"/>
<path d="M14.7392 3.05038C14.4848 3.05038 14.2785 3.25665 14.2785 3.5111V4.33654C14.2785 4.59098 14.0722 4.79725 13.8178 4.79725H12.9923C12.7379 4.79725 12.5316 5.00352 12.5316 5.25796V7.83027C12.5316 8.08472 12.7379 8.29099 12.9923 8.29099H13.8178C14.0722 8.29099 14.2785 8.49725 14.2785 8.7517V9.57714C14.2785 9.83158 14.4848 10.0379 14.7392 10.0379H29.5396C29.794 10.0379 30.0003 9.83158 30.0003 9.57714V3.5111C30.0003 3.25665 29.794 3.05038 29.5396 3.05038H14.7392ZM28.2534 7.83027C28.2534 8.08472 28.0471 8.29099 27.7927 8.29099H16.4861C16.2316 8.29099 16.0253 8.08472 16.0253 7.83027V5.25796C16.0253 5.00352 16.2316 4.79725 16.4861 4.79725H27.7927C28.0471 4.79725 28.2534 5.00352 28.2534 5.25796V7.83027Z" fill="#278BC2"/>
<path d="M28.2533 12.2457C28.2533 11.9912 28.0471 11.785 27.7926 11.785H13.1083C12.8539 11.785 12.6476 11.9912 12.6476 12.2457V18.3117C12.6476 18.5662 12.8539 18.7724 13.1083 18.7724H27.7926C28.0471 18.7724 28.2533 18.5662 28.2533 18.3117V17.4863C28.2533 17.2318 28.4596 17.0256 28.7141 17.0256H29.5395C29.7939 17.0256 30.0002 16.8193 30.0002 16.5649V13.9926C30.0002 13.7381 29.7939 13.5318 29.5395 13.5318H28.7141C28.4596 13.5318 28.2533 13.3256 28.2533 13.0711V12.2457ZM26.5065 16.5649C26.5065 16.8193 26.3002 17.0256 26.0458 17.0256H14.8552C14.6007 17.0256 14.3944 16.8193 14.3944 16.5649V13.9926C14.3944 13.7381 14.6007 13.5318 14.8552 13.5318H26.0458C26.3002 13.5318 26.5065 13.7381 26.5065 13.9926V16.5649Z" fill="#278BC2"/>
<defs>
<linearGradient id="paint0_linear_1_471" x1="6.37877" y1="7.42829" x2="6.37877" y2="13.6512" gradientUnits="userSpaceOnUse">
<stop stop-color="white"/>
<stop offset="1" stop-color="#ABE1FF"/>
</linearGradient>
<linearGradient id="paint1_linear_1_471" x1="13.3865" y1="6.74318" x2="29.1438" y2="6.67356" gradientUnits="userSpaceOnUse">
<stop stop-color="white"/>
<stop offset="1" stop-color="#ABE1FF"/>
</linearGradient>
<linearGradient id="paint2_linear_1_471" x1="29.565" y1="15.3761" x2="13.8078" y2="15.3065" gradientUnits="userSpaceOnUse">
<stop stop-color="white"/>
<stop offset="1" stop-color="#ABE1FF"/>
</linearGradient>
</defs>
</svg>
