<svg width="96" height="27" viewBox="0 0 96 27" fill="none" xmlns="http://www.w3.org/2000/svg">
<rect width="96" height="27" rx="5" fill="#EA9626"/>
<path d="M16 7.5C12.688 7.5 10 10.188 10 13.5C10 16.812 12.688 19.5 16 19.5C19.312 19.5 22 16.812 22 13.5C22 10.188 19.312 7.5 16 7.5ZM14.8 16.2V10.8L18.4 13.5L14.8 16.2Z" fill="white"/>
<path d="M30.0675 9.27273L32.3388 16.142H32.4283L34.6953 9.27273H36.4339L33.3572 18H31.4055L28.3331 9.27273H30.0675ZM37.5153 18V11.4545H39.0579V18H37.5153ZM38.2908 10.5256C38.0465 10.5256 37.8363 10.4446 37.6602 10.2827C37.484 10.1179 37.396 9.92045 37.396 9.69034C37.396 9.45739 37.484 9.25994 37.6602 9.09801C37.8363 8.93324 38.0465 8.85085 38.2908 8.85085C38.538 8.85085 38.7482 8.93324 38.9215 9.09801C39.0977 9.25994 39.1857 9.45739 39.1857 9.69034C39.1857 9.92045 39.0977 10.1179 38.9215 10.2827C38.7482 10.4446 38.538 10.5256 38.2908 10.5256ZM43.5419 18.1278C42.8857 18.1278 42.3189 17.9915 41.8416 17.7188C41.3672 17.4432 41.0021 17.054 40.7464 16.5511C40.4908 16.0455 40.3629 15.4503 40.3629 14.7656C40.3629 14.0923 40.4908 13.5014 40.7464 12.9929C41.005 12.4815 41.3658 12.0838 41.8288 11.7997C42.2919 11.5128 42.8359 11.3693 43.4609 11.3693C43.8643 11.3693 44.245 11.4347 44.603 11.5653C44.9638 11.6932 45.282 11.892 45.5575 12.1619C45.8359 12.4318 46.0547 12.7756 46.2138 13.1932C46.3729 13.608 46.4524 14.1023 46.4524 14.6761V15.1491H41.0874V14.1094H44.9737C44.9709 13.8139 44.907 13.5511 44.782 13.321C44.657 13.0881 44.4822 12.9048 44.2578 12.7713C44.0362 12.6378 43.7777 12.571 43.4822 12.571C43.1669 12.571 42.8899 12.6477 42.6513 12.8011C42.4126 12.9517 42.2266 13.1506 42.093 13.3977C41.9624 13.642 41.8956 13.9105 41.8928 14.2031V15.1108C41.8928 15.4915 41.9624 15.8182 42.1016 16.0909C42.2408 16.3608 42.4354 16.5682 42.6854 16.7131C42.9354 16.8551 43.228 16.9261 43.5632 16.9261C43.7876 16.9261 43.9908 16.8949 44.1726 16.8324C44.3544 16.767 44.5121 16.6719 44.6456 16.5469C44.7791 16.4219 44.88 16.267 44.9482 16.0824L46.3885 16.2443C46.2976 16.625 46.1243 16.9574 45.8686 17.2415C45.6158 17.5227 45.2919 17.7415 44.897 17.8977C44.5021 18.0511 44.0504 18.1278 43.5419 18.1278ZM49.0732 18L47.2237 11.4545H48.7962L49.9467 16.0568H50.0064L51.1825 11.4545H52.7379L53.9141 16.0312H53.978L55.1115 11.4545H56.6882L54.8345 18H53.228L52.0007 13.5767H51.9112L50.6839 18H49.0732ZM67.9819 9.27273V18H66.5756L62.4634 12.0554H62.391V18H60.81V9.27273H62.2248L66.3327 15.2216H66.4094V9.27273H67.9819ZM72.4915 18.1278C71.8523 18.1278 71.2983 17.9872 70.8295 17.706C70.3608 17.4247 69.9972 17.0312 69.7386 16.5256C69.483 16.0199 69.3551 15.429 69.3551 14.7528C69.3551 14.0767 69.483 13.4844 69.7386 12.9759C69.9972 12.4673 70.3608 12.0724 70.8295 11.7912C71.2983 11.5099 71.8523 11.3693 72.4915 11.3693C73.1307 11.3693 73.6847 11.5099 74.1534 11.7912C74.6222 12.0724 74.9844 12.4673 75.2401 12.9759C75.4986 13.4844 75.6278 14.0767 75.6278 14.7528C75.6278 15.429 75.4986 16.0199 75.2401 16.5256C74.9844 17.0312 74.6222 17.4247 74.1534 17.706C73.6847 17.9872 73.1307 18.1278 72.4915 18.1278ZM72.5 16.892C72.8466 16.892 73.1364 16.7969 73.3693 16.6065C73.6023 16.4134 73.7756 16.1548 73.8892 15.831C74.0057 15.5071 74.0639 15.1463 74.0639 14.7486C74.0639 14.348 74.0057 13.9858 73.8892 13.6619C73.7756 13.3352 73.6023 13.0753 73.3693 12.8821C73.1364 12.6889 72.8466 12.5923 72.5 12.5923C72.1449 12.5923 71.8494 12.6889 71.6136 12.8821C71.3807 13.0753 71.206 13.3352 71.0895 13.6619C70.9759 13.9858 70.919 14.348 70.919 14.7486C70.919 15.1463 70.9759 15.5071 71.0895 15.831C71.206 16.1548 71.3807 16.4134 71.6136 16.6065C71.8494 16.7969 72.1449 16.892 72.5 16.892ZM78.1005 18L76.2511 11.4545H77.8235L78.9741 16.0568H79.0337L80.2099 11.4545H81.7653L82.9414 16.0312H83.0053L84.1388 11.4545H85.7156L83.8619 18H82.2553L81.0281 13.5767H80.9386L79.7113 18H78.1005Z" fill="white"/>
</svg>
